<svg width="5120" height="384" viewBox="0 0 5120 384" fill="none" xmlns="http://www.w3.org/2000/svg">
<mask id="mask0_2_1616" style="mask-type:alpha" maskUnits="userSpaceOnUse" x="0" y="0" width="5120" height="384">
<path d="M5120 0H0V384H5120V0Z" fill="black"/>
</mask>
<g mask="url(#mask0_2_1616)">
<path d="M2059.82 323.971H2047.41V346.658H2059.82V323.971Z" fill="black"/>
<path d="M2059.82 361.399H2047.41V379.239H2059.82V361.399Z" fill="black"/>
<path d="M2047.41 0H2035V293.363H2047.41V0Z" fill="black"/>
<path d="M2059.82 0H2047.41V308.052H2059.82V0Z" fill="black"/>
<path d="M2097.05 325.213H2084.64V351.127H2097.05V325.213Z" fill="black"/>
<path d="M2221.16 316.056H2208.75V335.725H2221.16V316.056Z" fill="black"/>
<path d="M2146.7 334.709H2134.28V353.136H2146.7V334.709Z" fill="black"/>
<path d="M2146.7 365.155H2134.28V384H2146.7V365.155Z" fill="black"/>
<path d="M2121.87 316.468H2109.46V335.313H2121.87V316.468Z" fill="black"/>
<path d="M2084.64 0H2072.23V281.284H2084.64V0Z" fill="black"/>
<path d="M2097.05 0H2084.64V293.363H2097.05V0Z" fill="black"/>
<path d="M2109.46 0H2097.05V261.97H2109.46V0Z" fill="black"/>
<path d="M2121.87 0H2109.46V232.954H2121.87V0Z" fill="black"/>
<path d="M2134.29 0H2121.87V299.456H2134.29V0Z" fill="black"/>
<path d="M2146.7 0H2134.28V321.016H2146.7V0Z" fill="black"/>
<path d="M2171.52 0H2159.11V285.813H2171.52V0Z" fill="black"/>
<path d="M2196.34 0H2183.93V282.884H2196.34V0Z" fill="black"/>
<path d="M2196.34 300.31H2183.93V338.34H2196.34V300.31Z" fill="black"/>
<path d="M2270.8 322.653H2258.39V342.067H2270.8V322.653Z" fill="black"/>
<path d="M2196.34 349.545H2183.93V369.167H2196.34V349.545Z" fill="black"/>
<path d="M2221.16 0H2208.75V299.456H2221.16V0Z" fill="black"/>
<path d="M2233.57 0H2221.16V285.813H2233.57V0Z" fill="black"/>
<path d="M2183.93 0H2171.52V267.773H2183.93V0Z" fill="black"/>
<path d="M2245.98 0H2233.57V322.768H2245.98V0Z" fill="black"/>
<path d="M2245.98 347.3H2233.57V365.893H2245.98V347.3Z" fill="black"/>
<path d="M2270.8 0H2258.39V288.7H2270.8V0Z" fill="black"/>
<path d="M2283.21 0H2270.8V254.869H2283.21V0Z" fill="black"/>
<path fill-rule="evenodd" clip-rule="evenodd" d="M2146.7 0H2159.11V242.558H2146.7V0ZM2146.7 261.084V308.052H2159.11V261.084H2146.7Z" fill="black"/>
<path fill-rule="evenodd" clip-rule="evenodd" d="M2196.34 0H2208.75V196.346H2196.34V0ZM2196.34 214.99V242.299H2208.75V214.99H2196.34Z" fill="black"/>
<path fill-rule="evenodd" clip-rule="evenodd" d="M2245.98 0H2258.39V242.501H2245.98V0ZM2245.98 261.144V308.052H2258.39V261.144H2245.98Z" fill="black"/>
<path fill-rule="evenodd" clip-rule="evenodd" d="M2059.82 0H2072.23V219.895H2059.82V0ZM2059.82 246.016V261.97H2072.23V246.016H2059.82Z" fill="black"/>
<path d="M2293.96 0H2281.54V273.629H2293.96V0Z" fill="black"/>
<path d="M2306.37 0H2293.96V302.787H2306.37V0Z" fill="black"/>
<path d="M2318.78 0H2306.37V285.813H2318.78V0Z" fill="black"/>
<path d="M2343.6 0H2331.19V270.336H2343.6V0Z" fill="black"/>
<path d="M2331.19 301.634H2318.78V323.259H2331.19V301.634Z" fill="black"/>
<path d="M2306.37 317.758H2293.96V338.814H2306.37V317.758Z" fill="black"/>
<path d="M2356.01 0H2343.6V285.813H2356.01V0Z" fill="black"/>
<path d="M2368.42 0H2356.01V261.97H2368.42V0Z" fill="black"/>
<path d="M2393.24 0H2380.83V281.284H2393.24V0Z" fill="black"/>
<path d="M2418.06 323.971H2405.65V346.658H2418.06V323.971Z" fill="black"/>
<path d="M2418.06 361.399H2405.65V379.239H2418.06V361.399Z" fill="black"/>
<path d="M2405.65 0H2393.24V293.363H2405.65V0Z" fill="black"/>
<path d="M2418.06 0H2405.65V308.052H2418.06V0Z" fill="black"/>
<path d="M2455.3 325.213H2442.89V351.127H2455.3V325.213Z" fill="black"/>
<path d="M2579.4 316.056H2566.99V335.725H2579.4V316.056Z" fill="black"/>
<path d="M2504.94 334.709H2492.53V353.136H2504.94V334.709Z" fill="black"/>
<path d="M2504.94 365.155H2492.53V384H2504.94V365.155Z" fill="black"/>
<path d="M2480.12 316.468H2467.71V335.313H2480.12V316.468Z" fill="black"/>
<path d="M2380.83 294.713H2368.42V323.267H2380.83V294.713Z" fill="black"/>
<path d="M2380.83 337.589H2368.42V355.713H2380.83V337.589Z" fill="black"/>
<path d="M2356.01 314.547H2343.6V333.392H2356.01V314.547Z" fill="black"/>
<path d="M2331.19 343.422H2318.78V362.268H2331.19V343.422Z" fill="black"/>
<path d="M2442.88 0H2430.47V281.284H2442.88V0Z" fill="black"/>
<path d="M2455.3 0H2442.89V293.363H2455.3V0Z" fill="black"/>
<path d="M2467.71 0H2455.29V261.97H2467.71V0Z" fill="black"/>
<path d="M2480.12 0H2467.71V232.954H2480.12V0Z" fill="black"/>
<path d="M2492.53 0H2480.12V299.456H2492.53V0Z" fill="black"/>
<path d="M2504.94 0H2492.53V321.016H2504.94V0Z" fill="black"/>
<path d="M2529.76 0H2517.35V285.813H2529.76V0Z" fill="black"/>
<path d="M2554.58 0H2542.17V282.884H2554.58V0Z" fill="black"/>
<path d="M2554.58 300.31H2542.17V338.34H2554.58V300.31Z" fill="black"/>
<path d="M2629.04 322.653H2616.63V342.067H2629.04V322.653Z" fill="black"/>
<path d="M2554.58 349.545H2542.17V369.167H2554.58V349.545Z" fill="black"/>
<path d="M2579.4 0H2566.99V299.456H2579.4V0Z" fill="black"/>
<path d="M2591.81 0H2579.4V285.813H2591.81V0Z" fill="black"/>
<path d="M2542.17 0H2529.76V267.773H2542.17V0Z" fill="black"/>
<path d="M2604.22 0H2591.81V322.768H2604.22V0Z" fill="black"/>
<path d="M2604.22 347.3H2591.81V365.893H2604.22V347.3Z" fill="black"/>
<path d="M2629.04 0H2616.63V288.7H2629.04V0Z" fill="black"/>
<path d="M2641.46 0H2629.04V254.869H2641.46V0Z" fill="black"/>
<path fill-rule="evenodd" clip-rule="evenodd" d="M2318.78 0H2331.19V219.813H2318.78V0ZM2318.78 238.501V254.869H2331.19V238.501H2318.78Z" fill="black"/>
<path fill-rule="evenodd" clip-rule="evenodd" d="M2368.42 0H2380.83V196.406H2368.42V0ZM2368.42 214.932V244.639H2380.83V214.932H2368.42Z" fill="black"/>
<path fill-rule="evenodd" clip-rule="evenodd" d="M2504.94 0H2517.35V242.558H2504.94V0ZM2504.94 261.084V308.052H2517.35V261.084H2504.94Z" fill="black"/>
<path fill-rule="evenodd" clip-rule="evenodd" d="M2554.58 0H2566.99V196.346H2554.58V0ZM2554.58 214.99V242.299H2566.99V214.99H2554.58Z" fill="black"/>
<path fill-rule="evenodd" clip-rule="evenodd" d="M2604.22 0H2616.63V242.501H2604.22V0ZM2604.22 261.144V308.052H2616.63V261.144H2604.22Z" fill="black"/>
<path fill-rule="evenodd" clip-rule="evenodd" d="M2418.06 0H2430.48V219.895H2418.06V0ZM2418.06 246.016V261.97H2430.48V246.016H2418.06Z" fill="black"/>
<path d="M2652.97 0H2640.56V273.629H2652.97V0Z" fill="black"/>
<path d="M2665.38 0H2652.97V302.787H2665.38V0Z" fill="black"/>
<path d="M2677.8 0H2665.38V285.813H2677.8V0Z" fill="black"/>
<path d="M2702.62 0H2690.21V270.336H2702.62V0Z" fill="black"/>
<path d="M2690.21 301.634H2677.79V323.259H2690.21V301.634Z" fill="black"/>
<path d="M2665.38 317.758H2652.97V338.814H2665.38V317.758Z" fill="black"/>
<path d="M2715.03 0H2702.61V285.813H2715.03V0Z" fill="black"/>
<path d="M2727.44 0H2715.03V261.97H2727.44V0Z" fill="black"/>
<path d="M2752.26 0H2739.85V281.284H2752.26V0Z" fill="black"/>
<path d="M2777.08 323.971H2764.67V346.658H2777.08V323.971Z" fill="black"/>
<path d="M2777.08 361.399H2764.67V379.239H2777.08V361.399Z" fill="black"/>
<path d="M2764.67 0H2752.26V293.363H2764.67V0Z" fill="black"/>
<path d="M2777.08 0H2764.67V308.052H2777.08V0Z" fill="black"/>
<path d="M2814.31 325.213H2801.9V351.127H2814.31V325.213Z" fill="black"/>
<path d="M2938.42 316.056H2926.01V335.725H2938.42V316.056Z" fill="black"/>
<path d="M2863.95 334.709H2851.54V353.136H2863.95V334.709Z" fill="black"/>
<path d="M2863.95 365.155H2851.54V384H2863.95V365.155Z" fill="black"/>
<path d="M2839.14 316.468H2826.72V335.313H2839.14V316.468Z" fill="black"/>
<path d="M2739.85 294.713H2727.44V323.267H2739.85V294.713Z" fill="black"/>
<path d="M2739.85 337.589H2727.44V355.713H2739.85V337.589Z" fill="black"/>
<path d="M2715.03 314.547H2702.61V333.392H2715.03V314.547Z" fill="black"/>
<path d="M2690.21 343.422H2677.79V362.268H2690.21V343.422Z" fill="black"/>
<path d="M2801.9 0H2789.49V281.284H2801.9V0Z" fill="black"/>
<path d="M2814.31 0H2801.9V293.363H2814.31V0Z" fill="black"/>
<path d="M2826.72 0H2814.31V261.97H2826.72V0Z" fill="black"/>
<path d="M2839.14 0H2826.72V232.954H2839.14V0Z" fill="black"/>
<path d="M2851.54 0H2839.13V299.456H2851.54V0Z" fill="black"/>
<path d="M2863.95 0H2851.54V321.016H2863.95V0Z" fill="black"/>
<path d="M2888.78 0H2876.36V285.813H2888.78V0Z" fill="black"/>
<path d="M2913.6 0H2901.19V282.884H2913.6V0Z" fill="black"/>
<path d="M2913.6 300.31H2901.19V338.34H2913.6V300.31Z" fill="black"/>
<path d="M2988.06 322.653H2975.65V342.067H2988.06V322.653Z" fill="black"/>
<path d="M2913.6 349.545H2901.19V369.167H2913.6V349.545Z" fill="black"/>
<path d="M2938.42 0H2926.01V299.456H2938.42V0Z" fill="black"/>
<path d="M2950.83 0H2938.42V285.813H2950.83V0Z" fill="black"/>
<path d="M2901.19 0H2888.78V267.773H2901.19V0Z" fill="black"/>
<path d="M2963.24 0H2950.83V322.768H2963.24V0Z" fill="black"/>
<path d="M2963.24 347.3H2950.83V365.893H2963.24V347.3Z" fill="black"/>
<path d="M2988.06 0H2975.65V288.7H2988.06V0Z" fill="black"/>
<path d="M3000.47 0H2988.06V254.869H3000.47V0Z" fill="black"/>
<path fill-rule="evenodd" clip-rule="evenodd" d="M2677.79 0H2690.21V219.813H2677.79V0ZM2677.79 238.501V254.869H2690.21V238.501H2677.79Z" fill="black"/>
<path fill-rule="evenodd" clip-rule="evenodd" d="M2727.44 0H2739.85V196.406H2727.44V0ZM2727.44 214.932V244.639H2739.85V214.932H2727.44Z" fill="black"/>
<path fill-rule="evenodd" clip-rule="evenodd" d="M2863.95 0H2876.37V242.558H2863.95V0ZM2863.95 261.084V308.052H2876.37V261.084H2863.95Z" fill="black"/>
<path fill-rule="evenodd" clip-rule="evenodd" d="M2913.6 0H2926.01V196.346H2913.6V0ZM2913.6 214.99V242.299H2926.01V214.99H2913.6Z" fill="black"/>
<path fill-rule="evenodd" clip-rule="evenodd" d="M2963.24 0H2975.65V242.501H2963.24V0ZM2963.24 261.144V308.052H2975.65V261.144H2963.24Z" fill="black"/>
<path fill-rule="evenodd" clip-rule="evenodd" d="M2777.08 0H2789.49V219.895H2777.08V0ZM2777.08 246.016V261.97H2789.49V246.016H2777.08Z" fill="black"/>
<path d="M3011.22 0H2998.81V273.629H3011.22V0Z" fill="black"/>
<path d="M3023.62 0H3011.22V302.787H3023.62V0Z" fill="black"/>
<path d="M3036.03 0H3023.62V285.813H3036.03V0Z" fill="black"/>
<path d="M3060.86 0H3048.44V270.336H3060.86V0Z" fill="black"/>
<path d="M3048.45 301.634H3036.03V323.259H3048.45V301.634Z" fill="black"/>
<path d="M3023.62 317.758H3011.22V338.814H3023.62V317.758Z" fill="black"/>
<path d="M3073.27 0H3060.86V285.813H3073.27V0Z" fill="black"/>
<path d="M3085.68 0H3073.27V261.97H3085.68V0Z" fill="black"/>
<path d="M3073.27 314.547H3060.86V333.392H3073.27V314.547Z" fill="black"/>
<path d="M3048.45 343.422H3036.03V362.268H3048.45V343.422Z" fill="black"/>
<path fill-rule="evenodd" clip-rule="evenodd" d="M3036.03 0H3048.45V219.813H3036.03V0ZM3036.03 238.501V254.869H3048.45V238.501H3036.03Z" fill="black"/>
<path d="M4159.82 323.971H4147.41V346.658H4159.82V323.971Z" fill="black"/>
<path d="M4159.82 361.399H4147.41V379.239H4159.82V361.399Z" fill="black"/>
<path d="M4147.41 0H4135V293.363H4147.41V0Z" fill="black"/>
<path d="M4159.82 0H4147.41V308.052H4159.82V0Z" fill="black"/>
<path d="M4197.05 325.213H4184.64V351.127H4197.05V325.213Z" fill="black"/>
<path d="M4321.16 316.056H4308.75V335.725H4321.16V316.056Z" fill="black"/>
<path d="M4246.7 334.709H4234.28V353.136H4246.7V334.709Z" fill="black"/>
<path d="M4246.7 365.155H4234.28V384H4246.7V365.155Z" fill="black"/>
<path d="M4221.87 316.468H4209.46V335.313H4221.87V316.468Z" fill="black"/>
<path d="M4184.64 0H4172.23V281.284H4184.64V0Z" fill="black"/>
<path d="M4197.05 0H4184.64V293.363H4197.05V0Z" fill="black"/>
<path d="M4209.46 0H4197.05V261.97H4209.46V0Z" fill="black"/>
<path d="M4221.87 0H4209.46V232.954H4221.87V0Z" fill="black"/>
<path d="M4234.29 0H4221.87V299.456H4234.29V0Z" fill="black"/>
<path d="M4246.7 0H4234.28V321.016H4246.7V0Z" fill="black"/>
<path d="M4271.52 0H4259.11V285.813H4271.52V0Z" fill="black"/>
<path d="M4296.34 0H4283.93V282.884H4296.34V0Z" fill="black"/>
<path d="M4296.34 300.31H4283.93V338.34H4296.34V300.31Z" fill="black"/>
<path d="M4370.8 322.653H4358.39V342.067H4370.8V322.653Z" fill="black"/>
<path d="M4296.34 349.545H4283.93V369.167H4296.34V349.545Z" fill="black"/>
<path d="M4321.16 0H4308.75V299.456H4321.16V0Z" fill="black"/>
<path d="M4333.57 0H4321.16V285.813H4333.57V0Z" fill="black"/>
<path d="M4283.93 0H4271.52V267.773H4283.93V0Z" fill="black"/>
<path d="M4345.98 0H4333.57V322.768H4345.98V0Z" fill="black"/>
<path d="M4345.98 347.3H4333.57V365.893H4345.98V347.3Z" fill="black"/>
<path d="M4370.8 0H4358.39V288.7H4370.8V0Z" fill="black"/>
<path d="M4383.21 0H4370.8V254.869H4383.21V0Z" fill="black"/>
<path fill-rule="evenodd" clip-rule="evenodd" d="M4246.7 0H4259.11V242.558H4246.7V0ZM4246.7 261.084V308.052H4259.11V261.084H4246.7Z" fill="black"/>
<path fill-rule="evenodd" clip-rule="evenodd" d="M4296.34 0H4308.75V196.346H4296.34V0ZM4296.34 214.99V242.299H4308.75V214.99H4296.34Z" fill="black"/>
<path fill-rule="evenodd" clip-rule="evenodd" d="M4345.98 0H4358.39V242.501H4345.98V0ZM4345.98 261.144V308.052H4358.39V261.144H4345.98Z" fill="black"/>
<path fill-rule="evenodd" clip-rule="evenodd" d="M4159.82 0H4172.23V219.895H4159.82V0ZM4159.82 246.016V261.97H4172.23V246.016H4159.82Z" fill="black"/>
<path d="M4393.96 0H4381.54V273.629H4393.96V0Z" fill="black"/>
<path d="M4406.37 0H4393.96V302.787H4406.37V0Z" fill="black"/>
<path d="M4418.78 0H4406.37V285.813H4418.78V0Z" fill="black"/>
<path d="M4443.6 0H4431.19V270.336H4443.6V0Z" fill="black"/>
<path d="M4431.19 301.634H4418.78V323.259H4431.19V301.634Z" fill="black"/>
<path d="M4406.37 317.758H4393.96V338.814H4406.37V317.758Z" fill="black"/>
<path d="M4456.01 0H4443.6V285.813H4456.01V0Z" fill="black"/>
<path d="M4468.42 0H4456.01V261.97H4468.42V0Z" fill="black"/>
<path d="M4493.24 0H4480.83V281.284H4493.24V0Z" fill="black"/>
<path d="M4518.06 323.971H4505.65V346.658H4518.06V323.971Z" fill="black"/>
<path d="M4518.06 361.399H4505.65V379.239H4518.06V361.399Z" fill="black"/>
<path d="M4505.65 0H4493.24V293.363H4505.65V0Z" fill="black"/>
<path d="M4518.06 0H4505.65V308.052H4518.06V0Z" fill="black"/>
<path d="M4555.3 325.213H4542.88V351.127H4555.3V325.213Z" fill="black"/>
<path d="M4679.4 316.056H4666.99V335.725H4679.4V316.056Z" fill="black"/>
<path d="M4604.94 334.709H4592.53V353.136H4604.94V334.709Z" fill="black"/>
<path d="M4604.94 365.155H4592.53V384H4604.94V365.155Z" fill="black"/>
<path d="M4580.12 316.468H4567.71V335.313H4580.12V316.468Z" fill="black"/>
<path d="M4480.83 294.713H4468.42V323.267H4480.83V294.713Z" fill="black"/>
<path d="M4480.83 337.589H4468.42V355.713H4480.83V337.589Z" fill="black"/>
<path d="M4456.01 314.547H4443.6V333.392H4456.01V314.547Z" fill="black"/>
<path d="M4431.19 343.422H4418.78V362.268H4431.19V343.422Z" fill="black"/>
<path d="M4542.88 0H4530.47V281.284H4542.88V0Z" fill="black"/>
<path d="M4555.3 0H4542.88V293.363H4555.3V0Z" fill="black"/>
<path d="M4567.71 0H4555.29V261.97H4567.71V0Z" fill="black"/>
<path d="M4580.12 0H4567.71V232.954H4580.12V0Z" fill="black"/>
<path d="M4592.53 0H4580.12V299.456H4592.53V0Z" fill="black"/>
<path d="M4604.94 0H4592.53V321.016H4604.94V0Z" fill="black"/>
<path d="M4629.76 0H4617.35V285.813H4629.76V0Z" fill="black"/>
<path d="M4654.58 0H4642.17V282.884H4654.58V0Z" fill="black"/>
<path d="M4654.58 300.31H4642.17V338.34H4654.58V300.31Z" fill="black"/>
<path d="M4729.04 322.653H4716.63V342.067H4729.04V322.653Z" fill="black"/>
<path d="M4654.58 349.545H4642.17V369.167H4654.58V349.545Z" fill="black"/>
<path d="M4679.4 0H4666.99V299.456H4679.4V0Z" fill="black"/>
<path d="M4691.81 0H4679.4V285.813H4691.81V0Z" fill="black"/>
<path d="M4642.17 0H4629.76V267.773H4642.17V0Z" fill="black"/>
<path d="M4704.22 0H4691.81V322.768H4704.22V0Z" fill="black"/>
<path d="M4704.22 347.3H4691.81V365.893H4704.22V347.3Z" fill="black"/>
<path d="M4729.04 0H4716.63V288.7H4729.04V0Z" fill="black"/>
<path d="M4741.45 0H4729.04V254.869H4741.45V0Z" fill="black"/>
<path fill-rule="evenodd" clip-rule="evenodd" d="M4418.78 0H4431.19V219.813H4418.78V0ZM4418.78 238.501V254.869H4431.19V238.501H4418.78Z" fill="black"/>
<path fill-rule="evenodd" clip-rule="evenodd" d="M4468.42 0H4480.83V196.406H4468.42V0ZM4468.42 214.932V244.639H4480.83V214.932H4468.42Z" fill="black"/>
<path fill-rule="evenodd" clip-rule="evenodd" d="M4604.94 0H4617.35V242.558H4604.94V0ZM4604.94 261.084V308.052H4617.35V261.084H4604.94Z" fill="black"/>
<path fill-rule="evenodd" clip-rule="evenodd" d="M4654.58 0H4666.99V196.346H4654.58V0ZM4654.58 214.99V242.299H4666.99V214.99H4654.58Z" fill="black"/>
<path fill-rule="evenodd" clip-rule="evenodd" d="M4704.22 0H4716.63V242.501H4704.22V0ZM4704.22 261.144V308.052H4716.63V261.144H4704.22Z" fill="black"/>
<path fill-rule="evenodd" clip-rule="evenodd" d="M4518.06 0H4530.48V219.895H4518.06V0ZM4518.06 246.016V261.97H4530.48V246.016H4518.06Z" fill="black"/>
<path d="M4752.97 0H4740.56V273.629H4752.97V0Z" fill="black"/>
<path d="M4765.38 0H4752.97V302.787H4765.38V0Z" fill="black"/>
<path d="M4777.8 0H4765.38V285.813H4777.8V0Z" fill="black"/>
<path d="M4802.62 0H4790.21V270.336H4802.62V0Z" fill="black"/>
<path d="M4790.21 301.634H4777.79V323.259H4790.21V301.634Z" fill="black"/>
<path d="M4765.38 317.758H4752.97V338.814H4765.38V317.758Z" fill="black"/>
<path d="M4815.03 0H4802.61V285.813H4815.03V0Z" fill="black"/>
<path d="M4827.44 0H4815.03V261.97H4827.44V0Z" fill="black"/>
<path d="M4852.26 0H4839.85V281.284H4852.26V0Z" fill="black"/>
<path d="M4877.08 323.971H4864.67V346.658H4877.08V323.971Z" fill="black"/>
<path d="M4877.08 361.399H4864.67V379.239H4877.08V361.399Z" fill="black"/>
<path d="M4864.67 0H4852.26V293.363H4864.67V0Z" fill="black"/>
<path d="M4877.08 0H4864.67V308.052H4877.08V0Z" fill="black"/>
<path d="M4914.31 325.213H4901.9V351.127H4914.31V325.213Z" fill="black"/>
<path d="M5038.42 316.056H5026V335.725H5038.42V316.056Z" fill="black"/>
<path d="M4963.95 334.709H4951.54V353.136H4963.95V334.709Z" fill="black"/>
<path d="M4963.95 365.155H4951.54V384H4963.95V365.155Z" fill="black"/>
<path d="M4939.14 316.468H4926.72V335.313H4939.14V316.468Z" fill="black"/>
<path d="M4839.85 294.713H4827.44V323.267H4839.85V294.713Z" fill="black"/>
<path d="M4839.85 337.589H4827.44V355.713H4839.85V337.589Z" fill="black"/>
<path d="M4815.03 314.547H4802.61V333.392H4815.03V314.547Z" fill="black"/>
<path d="M4790.21 343.422H4777.79V362.268H4790.21V343.422Z" fill="black"/>
<path d="M4901.9 0H4889.49V281.284H4901.9V0Z" fill="black"/>
<path d="M4914.31 0H4901.9V293.363H4914.31V0Z" fill="black"/>
<path d="M4926.72 0H4914.31V261.97H4926.72V0Z" fill="black"/>
<path d="M4939.14 0H4926.72V232.954H4939.14V0Z" fill="black"/>
<path d="M4951.54 0H4939.13V299.456H4951.54V0Z" fill="black"/>
<path d="M4963.95 0H4951.54V321.016H4963.95V0Z" fill="black"/>
<path d="M4988.78 0H4976.36V285.813H4988.78V0Z" fill="black"/>
<path d="M5013.6 0H5001.19V282.884H5013.6V0Z" fill="black"/>
<path d="M5013.6 300.31H5001.19V338.34H5013.6V300.31Z" fill="black"/>
<path d="M5088.06 322.653H5075.65V342.067H5088.06V322.653Z" fill="black"/>
<path d="M5013.6 349.545H5001.19V369.167H5013.6V349.545Z" fill="black"/>
<path d="M5038.42 0H5026V299.456H5038.42V0Z" fill="black"/>
<path d="M5050.83 0H5038.42V285.813H5050.83V0Z" fill="black"/>
<path d="M5001.19 0H4988.78V267.773H5001.19V0Z" fill="black"/>
<path d="M5063.24 0H5050.83V322.768H5063.24V0Z" fill="black"/>
<path d="M5063.24 347.3H5050.83V365.893H5063.24V347.3Z" fill="black"/>
<path d="M5088.06 0H5075.65V288.7H5088.06V0Z" fill="black"/>
<path d="M5100.47 0H5088.06V254.869H5100.47V0Z" fill="black"/>
<path fill-rule="evenodd" clip-rule="evenodd" d="M4777.79 0H4790.21V219.813H4777.79V0ZM4777.79 238.501V254.869H4790.21V238.501H4777.79Z" fill="black"/>
<path fill-rule="evenodd" clip-rule="evenodd" d="M4827.44 0H4839.85V196.406H4827.44V0ZM4827.44 214.932V244.639H4839.85V214.932H4827.44Z" fill="black"/>
<path fill-rule="evenodd" clip-rule="evenodd" d="M4963.95 0H4976.37V242.558H4963.95V0ZM4963.95 261.084V308.052H4976.37V261.084H4963.95Z" fill="black"/>
<path fill-rule="evenodd" clip-rule="evenodd" d="M5013.6 0H5026.01V196.346H5013.6V0ZM5013.6 214.99V242.299H5026.01V214.99H5013.6Z" fill="black"/>
<path fill-rule="evenodd" clip-rule="evenodd" d="M5063.24 0H5075.65V242.501H5063.24V0ZM5063.24 261.144V308.052H5075.65V261.144H5063.24Z" fill="black"/>
<path fill-rule="evenodd" clip-rule="evenodd" d="M4877.08 0H4889.49V219.895H4877.08V0ZM4877.08 246.016V261.97H4889.49V246.016H4877.08Z" fill="black"/>
<path d="M5111.22 0H5098.81V273.629H5111.22V0Z" fill="black"/>
<path d="M5123.62 0H5111.22V302.787H5123.62V0Z" fill="black"/>
<path d="M5123.62 317.758H5111.22V338.814H5123.62V317.758Z" fill="black"/>
<path d="M1009.82 323.971H997.411V346.658H1009.82V323.971Z" fill="black"/>
<path d="M1009.82 361.399H997.411V379.239H1009.82V361.399Z" fill="black"/>
<path d="M997.411 0H985V293.363H997.411V0Z" fill="black"/>
<path d="M1009.82 0H997.411V308.052H1009.82V0Z" fill="black"/>
<path d="M1047.05 325.213H1034.64V351.127H1047.05V325.213Z" fill="black"/>
<path d="M1171.16 316.056H1158.75V335.725H1171.16V316.056Z" fill="black"/>
<path d="M1096.7 334.709H1084.28V353.136H1096.7V334.709Z" fill="black"/>
<path d="M1096.7 365.155H1084.28V384H1096.7V365.155Z" fill="black"/>
<path d="M1071.87 316.468H1059.46V335.313H1071.87V316.468Z" fill="black"/>
<path d="M1034.64 0H1022.23V281.284H1034.64V0Z" fill="black"/>
<path d="M1047.05 0H1034.64V293.363H1047.05V0Z" fill="black"/>
<path d="M1059.46 0H1047.05V261.97H1059.46V0Z" fill="black"/>
<path d="M1071.87 0H1059.46V232.954H1071.87V0Z" fill="black"/>
<path d="M1084.29 0H1071.87V299.456H1084.29V0Z" fill="black"/>
<path d="M1096.7 0H1084.28V321.016H1096.7V0Z" fill="black"/>
<path d="M1121.52 0H1109.11V285.813H1121.52V0Z" fill="black"/>
<path d="M1146.34 0H1133.93V282.884H1146.34V0Z" fill="black"/>
<path d="M1146.34 300.31H1133.93V338.34H1146.34V300.31Z" fill="black"/>
<path d="M1220.8 322.653H1208.39V342.067H1220.8V322.653Z" fill="black"/>
<path d="M1146.34 349.545H1133.93V369.167H1146.34V349.545Z" fill="black"/>
<path d="M1171.16 0H1158.75V299.456H1171.16V0Z" fill="black"/>
<path d="M1183.57 0H1171.16V285.813H1183.57V0Z" fill="black"/>
<path d="M1133.93 0H1121.52V267.773H1133.93V0Z" fill="black"/>
<path d="M1195.98 0H1183.57V322.768H1195.98V0Z" fill="black"/>
<path d="M1195.98 347.3H1183.57V365.893H1195.98V347.3Z" fill="black"/>
<path d="M1220.8 0H1208.39V288.7H1220.8V0Z" fill="black"/>
<path d="M1233.21 0H1220.8V254.869H1233.21V0Z" fill="black"/>
<path fill-rule="evenodd" clip-rule="evenodd" d="M1096.7 0H1109.11V242.558H1096.7V0ZM1096.7 261.084V308.052H1109.11V261.084H1096.7Z" fill="black"/>
<path fill-rule="evenodd" clip-rule="evenodd" d="M1146.34 0H1158.75V196.346H1146.34V0ZM1146.34 214.99V242.299H1158.75V214.99H1146.34Z" fill="black"/>
<path fill-rule="evenodd" clip-rule="evenodd" d="M1195.98 0H1208.39V242.501H1195.98V0ZM1195.98 261.144V308.052H1208.39V261.144H1195.98Z" fill="black"/>
<path fill-rule="evenodd" clip-rule="evenodd" d="M1009.82 0H1022.23V219.895H1009.82V0ZM1009.82 246.016V261.97H1022.23V246.016H1009.82Z" fill="black"/>
<path d="M1243.96 0H1231.54V273.629H1243.96V0Z" fill="black"/>
<path d="M1256.37 0H1243.96V302.787H1256.37V0Z" fill="black"/>
<path d="M1268.78 0H1256.37V285.813H1268.78V0Z" fill="black"/>
<path d="M1293.6 0H1281.19V270.336H1293.6V0Z" fill="black"/>
<path d="M1281.19 301.634H1268.78V323.259H1281.19V301.634Z" fill="black"/>
<path d="M1256.37 317.758H1243.96V338.814H1256.37V317.758Z" fill="black"/>
<path d="M1306.01 0H1293.6V285.813H1306.01V0Z" fill="black"/>
<path d="M1318.42 0H1306.01V261.97H1318.42V0Z" fill="black"/>
<path d="M1343.24 0H1330.83V281.284H1343.24V0Z" fill="black"/>
<path d="M1368.06 323.971H1355.65V346.658H1368.06V323.971Z" fill="black"/>
<path d="M1368.06 361.399H1355.65V379.239H1368.06V361.399Z" fill="black"/>
<path d="M1355.65 0H1343.24V293.363H1355.65V0Z" fill="black"/>
<path d="M1368.06 0H1355.65V308.052H1368.06V0Z" fill="black"/>
<path d="M1405.3 325.213H1392.89V351.127H1405.3V325.213Z" fill="black"/>
<path d="M1529.4 316.056H1516.99V335.725H1529.4V316.056Z" fill="black"/>
<path d="M1454.94 334.709H1442.53V353.136H1454.94V334.709Z" fill="black"/>
<path d="M1454.94 365.155H1442.53V384H1454.94V365.155Z" fill="black"/>
<path d="M1430.12 316.468H1417.71V335.313H1430.12V316.468Z" fill="black"/>
<path d="M1330.83 294.713H1318.42V323.267H1330.83V294.713Z" fill="black"/>
<path d="M1330.83 337.589H1318.42V355.713H1330.83V337.589Z" fill="black"/>
<path d="M1306.01 314.547H1293.6V333.392H1306.01V314.547Z" fill="black"/>
<path d="M1281.19 343.422H1268.78V362.268H1281.19V343.422Z" fill="black"/>
<path d="M1392.88 0H1380.47V281.284H1392.88V0Z" fill="black"/>
<path d="M1405.3 0H1392.89V293.363H1405.3V0Z" fill="black"/>
<path d="M1417.71 0H1405.29V261.97H1417.71V0Z" fill="black"/>
<path d="M1430.12 0H1417.71V232.954H1430.12V0Z" fill="black"/>
<path d="M1442.53 0H1430.12V299.456H1442.53V0Z" fill="black"/>
<path d="M1454.94 0H1442.53V321.016H1454.94V0Z" fill="black"/>
<path d="M1479.76 0H1467.35V285.813H1479.76V0Z" fill="black"/>
<path d="M1504.58 0H1492.17V282.884H1504.58V0Z" fill="black"/>
<path d="M1504.58 300.31H1492.17V338.34H1504.58V300.31Z" fill="black"/>
<path d="M1579.04 322.653H1566.63V342.067H1579.04V322.653Z" fill="black"/>
<path d="M1504.58 349.545H1492.17V369.167H1504.58V349.545Z" fill="black"/>
<path d="M1529.4 0H1516.99V299.456H1529.4V0Z" fill="black"/>
<path d="M1541.81 0H1529.4V285.813H1541.81V0Z" fill="black"/>
<path d="M1492.17 0H1479.76V267.773H1492.17V0Z" fill="black"/>
<path d="M1554.22 0H1541.81V322.768H1554.22V0Z" fill="black"/>
<path d="M1554.22 347.3H1541.81V365.893H1554.22V347.3Z" fill="black"/>
<path d="M1579.04 0H1566.63V288.7H1579.04V0Z" fill="black"/>
<path d="M1591.46 0H1579.04V254.869H1591.46V0Z" fill="black"/>
<path fill-rule="evenodd" clip-rule="evenodd" d="M1268.78 0H1281.19V219.813H1268.78V0ZM1268.78 238.501V254.869H1281.19V238.501H1268.78Z" fill="black"/>
<path fill-rule="evenodd" clip-rule="evenodd" d="M1318.42 0H1330.83V196.406H1318.42V0ZM1318.42 214.932V244.639H1330.83V214.932H1318.42Z" fill="black"/>
<path fill-rule="evenodd" clip-rule="evenodd" d="M1454.94 0H1467.35V242.558H1454.94V0ZM1454.94 261.084V308.052H1467.35V261.084H1454.94Z" fill="black"/>
<path fill-rule="evenodd" clip-rule="evenodd" d="M1504.58 0H1516.99V196.346H1504.58V0ZM1504.58 214.99V242.299H1516.99V214.99H1504.58Z" fill="black"/>
<path fill-rule="evenodd" clip-rule="evenodd" d="M1554.22 0H1566.63V242.501H1554.22V0ZM1554.22 261.144V308.052H1566.63V261.144H1554.22Z" fill="black"/>
<path fill-rule="evenodd" clip-rule="evenodd" d="M1368.06 0H1380.48V219.895H1368.06V0ZM1368.06 246.016V261.97H1380.48V246.016H1368.06Z" fill="black"/>
<path d="M1602.97 0H1590.56V273.629H1602.97V0Z" fill="black"/>
<path d="M1615.38 0H1602.97V302.787H1615.38V0Z" fill="black"/>
<path d="M1627.8 0H1615.38V285.813H1627.8V0Z" fill="black"/>
<path d="M1652.62 0H1640.21V270.336H1652.62V0Z" fill="black"/>
<path d="M1640.21 301.634H1627.79V323.259H1640.21V301.634Z" fill="black"/>
<path d="M1615.38 317.758H1602.97V338.814H1615.38V317.758Z" fill="black"/>
<path d="M1665.03 0H1652.61V285.813H1665.03V0Z" fill="black"/>
<path d="M1677.44 0H1665.03V261.97H1677.44V0Z" fill="black"/>
<path d="M1702.26 0H1689.85V281.284H1702.26V0Z" fill="black"/>
<path d="M1727.08 323.971H1714.67V346.658H1727.08V323.971Z" fill="black"/>
<path d="M1727.08 361.399H1714.67V379.239H1727.08V361.399Z" fill="black"/>
<path d="M1714.67 0H1702.26V293.363H1714.67V0Z" fill="black"/>
<path d="M1727.08 0H1714.67V308.052H1727.08V0Z" fill="black"/>
<path d="M1764.31 325.213H1751.9V351.127H1764.31V325.213Z" fill="black"/>
<path d="M1888.42 316.056H1876.01V335.725H1888.42V316.056Z" fill="black"/>
<path d="M1813.95 334.709H1801.54V353.136H1813.95V334.709Z" fill="black"/>
<path d="M1813.95 365.155H1801.54V384H1813.95V365.155Z" fill="black"/>
<path d="M1789.14 316.468H1776.72V335.313H1789.14V316.468Z" fill="black"/>
<path d="M1689.85 294.713H1677.44V323.267H1689.85V294.713Z" fill="black"/>
<path d="M1689.85 337.589H1677.44V355.713H1689.85V337.589Z" fill="black"/>
<path d="M1665.03 314.547H1652.61V333.392H1665.03V314.547Z" fill="black"/>
<path d="M1640.21 343.422H1627.79V362.268H1640.21V343.422Z" fill="black"/>
<path d="M1751.9 0H1739.49V281.284H1751.9V0Z" fill="black"/>
<path d="M1764.31 0H1751.9V293.363H1764.31V0Z" fill="black"/>
<path d="M1776.72 0H1764.31V261.97H1776.72V0Z" fill="black"/>
<path d="M1789.14 0H1776.72V232.954H1789.14V0Z" fill="black"/>
<path d="M1801.54 0H1789.13V299.456H1801.54V0Z" fill="black"/>
<path d="M1813.95 0H1801.54V321.016H1813.95V0Z" fill="black"/>
<path d="M1838.78 0H1826.36V285.813H1838.78V0Z" fill="black"/>
<path d="M1863.6 0H1851.19V282.884H1863.6V0Z" fill="black"/>
<path d="M1863.6 300.31H1851.19V338.34H1863.6V300.31Z" fill="black"/>
<path d="M1938.06 322.653H1925.65V342.067H1938.06V322.653Z" fill="black"/>
<path d="M1863.6 349.545H1851.19V369.167H1863.6V349.545Z" fill="black"/>
<path d="M1888.42 0H1876.01V299.456H1888.42V0Z" fill="black"/>
<path d="M1900.83 0H1888.42V285.813H1900.83V0Z" fill="black"/>
<path d="M1851.19 0H1838.78V267.773H1851.19V0Z" fill="black"/>
<path d="M1913.24 0H1900.83V322.768H1913.24V0Z" fill="black"/>
<path d="M1913.24 347.3H1900.83V365.893H1913.24V347.3Z" fill="black"/>
<path d="M1938.06 0H1925.65V288.7H1938.06V0Z" fill="black"/>
<path d="M1950.47 0H1938.06V254.869H1950.47V0Z" fill="black"/>
<path fill-rule="evenodd" clip-rule="evenodd" d="M1627.79 0H1640.21V219.813H1627.79V0ZM1627.79 238.501V254.869H1640.21V238.501H1627.79Z" fill="black"/>
<path fill-rule="evenodd" clip-rule="evenodd" d="M1677.44 0H1689.85V196.406H1677.44V0ZM1677.44 214.932V244.639H1689.85V214.932H1677.44Z" fill="black"/>
<path fill-rule="evenodd" clip-rule="evenodd" d="M1813.95 0H1826.37V242.558H1813.95V0ZM1813.95 261.084V308.052H1826.37V261.084H1813.95Z" fill="black"/>
<path fill-rule="evenodd" clip-rule="evenodd" d="M1863.6 0H1876.01V196.346H1863.6V0ZM1863.6 214.99V242.299H1876.01V214.99H1863.6Z" fill="black"/>
<path fill-rule="evenodd" clip-rule="evenodd" d="M1913.24 0H1925.65V242.501H1913.24V0ZM1913.24 261.144V308.052H1925.65V261.144H1913.24Z" fill="black"/>
<path fill-rule="evenodd" clip-rule="evenodd" d="M1727.08 0H1739.49V219.895H1727.08V0ZM1727.08 246.016V261.97H1739.49V246.016H1727.08Z" fill="black"/>
<path d="M1961.22 0H1948.81V273.629H1961.22V0Z" fill="black"/>
<path d="M1973.62 0H1961.22V302.787H1973.62V0Z" fill="black"/>
<path d="M1986.03 0H1973.62V285.813H1986.03V0Z" fill="black"/>
<path d="M2010.86 0H1998.44V270.336H2010.86V0Z" fill="black"/>
<path d="M1998.45 301.634H1986.03V323.259H1998.45V301.634Z" fill="black"/>
<path d="M1973.62 317.758H1961.22V338.814H1973.62V317.758Z" fill="black"/>
<path d="M2023.27 0H2010.86V285.813H2023.27V0Z" fill="black"/>
<path d="M2035.68 0H2023.27V261.97H2035.68V0Z" fill="black"/>
<path d="M2023.27 314.547H2010.86V333.392H2023.27V314.547Z" fill="black"/>
<path d="M1998.45 343.422H1986.03V362.268H1998.45V343.422Z" fill="black"/>
<path fill-rule="evenodd" clip-rule="evenodd" d="M1986.03 0H1998.45V219.813H1986.03V0ZM1986.03 238.501V254.869H1998.45V238.501H1986.03Z" fill="black"/>
<path d="M3109.82 323.971H3097.41V346.658H3109.82V323.971Z" fill="black"/>
<path d="M3109.82 361.399H3097.41V379.239H3109.82V361.399Z" fill="black"/>
<path d="M3097.41 0H3085V293.363H3097.41V0Z" fill="black"/>
<path d="M3109.82 0H3097.41V308.052H3109.82V0Z" fill="black"/>
<path d="M3147.05 325.213H3134.64V351.127H3147.05V325.213Z" fill="black"/>
<path d="M3271.16 316.056H3258.75V335.725H3271.16V316.056Z" fill="black"/>
<path d="M3196.7 334.709H3184.28V353.136H3196.7V334.709Z" fill="black"/>
<path d="M3196.7 365.155H3184.28V384H3196.7V365.155Z" fill="black"/>
<path d="M3171.87 316.468H3159.46V335.313H3171.87V316.468Z" fill="black"/>
<path d="M3134.64 0H3122.23V281.284H3134.64V0Z" fill="black"/>
<path d="M3147.05 0H3134.64V293.363H3147.05V0Z" fill="black"/>
<path d="M3159.46 0H3147.05V261.97H3159.46V0Z" fill="black"/>
<path d="M3171.87 0H3159.46V232.954H3171.87V0Z" fill="black"/>
<path d="M3184.29 0H3171.87V299.456H3184.29V0Z" fill="black"/>
<path d="M3196.7 0H3184.28V321.016H3196.7V0Z" fill="black"/>
<path d="M3221.52 0H3209.11V285.813H3221.52V0Z" fill="black"/>
<path d="M3246.34 0H3233.93V282.884H3246.34V0Z" fill="black"/>
<path d="M3246.34 300.31H3233.93V338.34H3246.34V300.31Z" fill="black"/>
<path d="M3320.8 322.653H3308.39V342.067H3320.8V322.653Z" fill="black"/>
<path d="M3246.34 349.545H3233.93V369.167H3246.34V349.545Z" fill="black"/>
<path d="M3271.16 0H3258.75V299.456H3271.16V0Z" fill="black"/>
<path d="M3283.57 0H3271.16V285.813H3283.57V0Z" fill="black"/>
<path d="M3233.93 0H3221.52V267.773H3233.93V0Z" fill="black"/>
<path d="M3295.98 0H3283.57V322.768H3295.98V0Z" fill="black"/>
<path d="M3295.98 347.3H3283.57V365.893H3295.98V347.3Z" fill="black"/>
<path d="M3320.8 0H3308.39V288.7H3320.8V0Z" fill="black"/>
<path d="M3333.21 0H3320.8V254.869H3333.21V0Z" fill="black"/>
<path fill-rule="evenodd" clip-rule="evenodd" d="M3196.7 0H3209.11V242.558H3196.7V0ZM3196.7 261.084V308.052H3209.11V261.084H3196.7Z" fill="black"/>
<path fill-rule="evenodd" clip-rule="evenodd" d="M3246.34 0H3258.75V196.346H3246.34V0ZM3246.34 214.99V242.299H3258.75V214.99H3246.34Z" fill="black"/>
<path fill-rule="evenodd" clip-rule="evenodd" d="M3295.98 0H3308.39V242.501H3295.98V0ZM3295.98 261.144V308.052H3308.39V261.144H3295.98Z" fill="black"/>
<path fill-rule="evenodd" clip-rule="evenodd" d="M3109.82 0H3122.23V219.895H3109.82V0ZM3109.82 246.016V261.97H3122.23V246.016H3109.82Z" fill="black"/>
<path d="M3343.96 0H3331.54V273.629H3343.96V0Z" fill="black"/>
<path d="M3356.37 0H3343.96V302.787H3356.37V0Z" fill="black"/>
<path d="M3368.78 0H3356.37V285.813H3368.78V0Z" fill="black"/>
<path d="M3393.6 0H3381.19V270.336H3393.6V0Z" fill="black"/>
<path d="M3381.19 301.634H3368.78V323.259H3381.19V301.634Z" fill="black"/>
<path d="M3356.37 317.758H3343.96V338.814H3356.37V317.758Z" fill="black"/>
<path d="M3406.01 0H3393.6V285.813H3406.01V0Z" fill="black"/>
<path d="M3418.42 0H3406.01V261.97H3418.42V0Z" fill="black"/>
<path d="M3443.24 0H3430.83V281.284H3443.24V0Z" fill="black"/>
<path d="M3468.06 323.971H3455.65V346.658H3468.06V323.971Z" fill="black"/>
<path d="M3468.06 361.399H3455.65V379.239H3468.06V361.399Z" fill="black"/>
<path d="M3455.65 0H3443.24V293.363H3455.65V0Z" fill="black"/>
<path d="M3468.06 0H3455.65V308.052H3468.06V0Z" fill="black"/>
<path d="M3505.3 325.213H3492.89V351.127H3505.3V325.213Z" fill="black"/>
<path d="M3629.4 316.056H3616.99V335.725H3629.4V316.056Z" fill="black"/>
<path d="M3554.94 334.709H3542.53V353.136H3554.94V334.709Z" fill="black"/>
<path d="M3554.94 365.155H3542.53V384H3554.94V365.155Z" fill="black"/>
<path d="M3530.12 316.468H3517.71V335.313H3530.12V316.468Z" fill="black"/>
<path d="M3430.83 294.713H3418.42V323.267H3430.83V294.713Z" fill="black"/>
<path d="M3430.83 337.589H3418.42V355.713H3430.83V337.589Z" fill="black"/>
<path d="M3406.01 314.547H3393.6V333.392H3406.01V314.547Z" fill="black"/>
<path d="M3381.19 343.422H3368.78V362.268H3381.19V343.422Z" fill="black"/>
<path d="M3492.88 0H3480.47V281.284H3492.88V0Z" fill="black"/>
<path d="M3505.3 0H3492.89V293.363H3505.3V0Z" fill="black"/>
<path d="M3517.71 0H3505.29V261.97H3517.71V0Z" fill="black"/>
<path d="M3530.12 0H3517.71V232.954H3530.12V0Z" fill="black"/>
<path d="M3542.53 0H3530.12V299.456H3542.53V0Z" fill="black"/>
<path d="M3554.94 0H3542.53V321.016H3554.94V0Z" fill="black"/>
<path d="M3579.76 0H3567.35V285.813H3579.76V0Z" fill="black"/>
<path d="M3604.58 0H3592.17V282.884H3604.58V0Z" fill="black"/>
<path d="M3604.58 300.31H3592.17V338.34H3604.58V300.31Z" fill="black"/>
<path d="M3679.04 322.653H3666.63V342.067H3679.04V322.653Z" fill="black"/>
<path d="M3604.58 349.545H3592.17V369.167H3604.58V349.545Z" fill="black"/>
<path d="M3629.4 0H3616.99V299.456H3629.4V0Z" fill="black"/>
<path d="M3641.81 0H3629.4V285.813H3641.81V0Z" fill="black"/>
<path d="M3592.17 0H3579.76V267.773H3592.17V0Z" fill="black"/>
<path d="M3654.22 0H3641.81V322.768H3654.22V0Z" fill="black"/>
<path d="M3654.22 347.3H3641.81V365.893H3654.22V347.3Z" fill="black"/>
<path d="M3679.04 0H3666.63V288.7H3679.04V0Z" fill="black"/>
<path d="M3691.46 0H3679.04V254.869H3691.46V0Z" fill="black"/>
<path fill-rule="evenodd" clip-rule="evenodd" d="M3368.78 0H3381.19V219.813H3368.78V0ZM3368.78 238.501V254.869H3381.19V238.501H3368.78Z" fill="black"/>
<path fill-rule="evenodd" clip-rule="evenodd" d="M3418.42 0H3430.83V196.406H3418.42V0ZM3418.42 214.932V244.639H3430.83V214.932H3418.42Z" fill="black"/>
<path fill-rule="evenodd" clip-rule="evenodd" d="M3554.94 0H3567.35V242.558H3554.94V0ZM3554.94 261.084V308.052H3567.35V261.084H3554.94Z" fill="black"/>
<path fill-rule="evenodd" clip-rule="evenodd" d="M3604.58 0H3616.99V196.346H3604.58V0ZM3604.58 214.99V242.299H3616.99V214.99H3604.58Z" fill="black"/>
<path fill-rule="evenodd" clip-rule="evenodd" d="M3654.22 0H3666.63V242.501H3654.22V0ZM3654.22 261.144V308.052H3666.63V261.144H3654.22Z" fill="black"/>
<path fill-rule="evenodd" clip-rule="evenodd" d="M3468.06 0H3480.48V219.895H3468.06V0ZM3468.06 246.016V261.97H3480.48V246.016H3468.06Z" fill="black"/>
<path d="M3702.97 0H3690.56V273.629H3702.97V0Z" fill="black"/>
<path d="M3715.38 0H3702.97V302.787H3715.38V0Z" fill="black"/>
<path d="M3727.8 0H3715.38V285.813H3727.8V0Z" fill="black"/>
<path d="M3752.62 0H3740.21V270.336H3752.62V0Z" fill="black"/>
<path d="M3740.21 301.634H3727.79V323.259H3740.21V301.634Z" fill="black"/>
<path d="M3715.38 317.758H3702.97V338.814H3715.38V317.758Z" fill="black"/>
<path d="M3765.03 0H3752.61V285.813H3765.03V0Z" fill="black"/>
<path d="M3777.44 0H3765.03V261.97H3777.44V0Z" fill="black"/>
<path d="M3802.26 0H3789.85V281.284H3802.26V0Z" fill="black"/>
<path d="M3827.08 323.971H3814.67V346.658H3827.08V323.971Z" fill="black"/>
<path d="M3827.08 361.399H3814.67V379.239H3827.08V361.399Z" fill="black"/>
<path d="M3814.67 0H3802.26V293.363H3814.67V0Z" fill="black"/>
<path d="M3827.08 0H3814.67V308.052H3827.08V0Z" fill="black"/>
<path d="M3864.31 325.213H3851.9V351.127H3864.31V325.213Z" fill="black"/>
<path d="M3988.42 316.056H3976.01V335.725H3988.42V316.056Z" fill="black"/>
<path d="M3913.95 334.709H3901.54V353.136H3913.95V334.709Z" fill="black"/>
<path d="M3913.95 365.155H3901.54V384H3913.95V365.155Z" fill="black"/>
<path d="M3889.14 316.468H3876.72V335.313H3889.14V316.468Z" fill="black"/>
<path d="M3789.85 294.713H3777.44V323.267H3789.85V294.713Z" fill="black"/>
<path d="M3789.85 337.589H3777.44V355.713H3789.85V337.589Z" fill="black"/>
<path d="M3765.03 314.547H3752.61V333.392H3765.03V314.547Z" fill="black"/>
<path d="M3740.21 343.422H3727.79V362.268H3740.21V343.422Z" fill="black"/>
<path d="M3851.9 0H3839.49V281.284H3851.9V0Z" fill="black"/>
<path d="M3864.31 0H3851.9V293.363H3864.31V0Z" fill="black"/>
<path d="M3876.72 0H3864.31V261.97H3876.72V0Z" fill="black"/>
<path d="M3889.14 0H3876.72V232.954H3889.14V0Z" fill="black"/>
<path d="M3901.54 0H3889.13V299.456H3901.54V0Z" fill="black"/>
<path d="M3913.95 0H3901.54V321.016H3913.95V0Z" fill="black"/>
<path d="M3938.78 0H3926.36V285.813H3938.78V0Z" fill="black"/>
<path d="M3963.6 0H3951.19V282.884H3963.6V0Z" fill="black"/>
<path d="M3963.6 300.31H3951.19V338.34H3963.6V300.31Z" fill="black"/>
<path d="M4038.06 322.653H4025.65V342.067H4038.06V322.653Z" fill="black"/>
<path d="M3963.6 349.545H3951.19V369.167H3963.6V349.545Z" fill="black"/>
<path d="M3988.42 0H3976.01V299.456H3988.42V0Z" fill="black"/>
<path d="M4000.83 0H3988.42V285.813H4000.83V0Z" fill="black"/>
<path d="M3951.19 0H3938.78V267.773H3951.19V0Z" fill="black"/>
<path d="M4013.24 0H4000.83V322.768H4013.24V0Z" fill="black"/>
<path d="M4013.24 347.3H4000.83V365.893H4013.24V347.3Z" fill="black"/>
<path d="M4038.06 0H4025.65V288.7H4038.06V0Z" fill="black"/>
<path d="M4050.47 0H4038.06V254.869H4050.47V0Z" fill="black"/>
<path fill-rule="evenodd" clip-rule="evenodd" d="M3727.79 0H3740.21V219.813H3727.79V0ZM3727.79 238.501V254.869H3740.21V238.501H3727.79Z" fill="black"/>
<path fill-rule="evenodd" clip-rule="evenodd" d="M3777.44 0H3789.85V196.406H3777.44V0ZM3777.44 214.932V244.639H3789.85V214.932H3777.44Z" fill="black"/>
<path fill-rule="evenodd" clip-rule="evenodd" d="M3913.95 0H3926.37V242.558H3913.95V0ZM3913.95 261.084V308.052H3926.37V261.084H3913.95Z" fill="black"/>
<path fill-rule="evenodd" clip-rule="evenodd" d="M3963.6 0H3976.01V196.346H3963.6V0ZM3963.6 214.99V242.299H3976.01V214.99H3963.6Z" fill="black"/>
<path fill-rule="evenodd" clip-rule="evenodd" d="M4013.24 0H4025.65V242.501H4013.24V0ZM4013.24 261.144V308.052H4025.65V261.144H4013.24Z" fill="black"/>
<path fill-rule="evenodd" clip-rule="evenodd" d="M3827.08 0H3839.49V219.895H3827.08V0ZM3827.08 246.016V261.97H3839.49V246.016H3827.08Z" fill="black"/>
<path d="M4061.22 0H4048.81V273.629H4061.22V0Z" fill="black"/>
<path d="M4073.62 0H4061.22V302.787H4073.62V0Z" fill="black"/>
<path d="M4086.03 0H4073.62V285.813H4086.03V0Z" fill="black"/>
<path d="M4110.86 0H4098.44V270.336H4110.86V0Z" fill="black"/>
<path d="M4098.45 301.634H4086.03V323.259H4098.45V301.634Z" fill="black"/>
<path d="M4073.62 317.758H4061.22V338.814H4073.62V317.758Z" fill="black"/>
<path d="M4123.27 0H4110.86V285.813H4123.27V0Z" fill="black"/>
<path d="M4135.68 0H4123.27V261.97H4135.68V0Z" fill="black"/>
<path d="M4123.27 314.547H4110.86V333.392H4123.27V314.547Z" fill="black"/>
<path d="M4098.45 343.422H4086.03V362.268H4098.45V343.422Z" fill="black"/>
<path fill-rule="evenodd" clip-rule="evenodd" d="M4086.03 0H4098.45V219.813H4086.03V0ZM4086.03 238.501V254.869H4098.45V238.501H4086.03Z" fill="black"/>
<path d="M121.161 316.056H108.749V335.725H121.161V316.056Z" fill="black"/>
<path d="M46.6957 334.709H34.2847V353.136H46.6957V334.709Z" fill="black"/>
<path d="M46.6957 365.155H34.2847V384H46.6957V365.155Z" fill="black"/>
<path d="M21.8744 316.468H9.46338V335.313H21.8744V316.468Z" fill="black"/>
<path d="M9.46486 0H-2.94629V261.97H9.46486V0Z" fill="black"/>
<path d="M21.8744 0H9.46338V232.954H21.8744V0Z" fill="black"/>
<path d="M34.2862 0H21.8745V299.456H34.2862V0Z" fill="black"/>
<path d="M46.6957 0H34.2847V321.016H46.6957V0Z" fill="black"/>
<path d="M71.5172 0H59.1055V285.813H71.5172V0Z" fill="black"/>
<path d="M96.3397 0H83.9287V282.884H96.3397V0Z" fill="black"/>
<path d="M96.3397 300.31H83.9287V338.34H96.3397V300.31Z" fill="black"/>
<path d="M170.803 322.653H158.392V342.067H170.803V322.653Z" fill="black"/>
<path d="M96.3397 349.545H83.9287V369.167H96.3397V349.545Z" fill="black"/>
<path d="M121.161 0H108.749V299.456H121.161V0Z" fill="black"/>
<path d="M133.571 0H121.16V285.813H133.571V0Z" fill="black"/>
<path d="M83.9288 0H71.5171V267.773H83.9288V0Z" fill="black"/>
<path d="M145.982 0H133.57V322.768H145.982V0Z" fill="black"/>
<path d="M145.982 347.3H133.57V365.893H145.982V347.3Z" fill="black"/>
<path d="M170.803 0H158.392V288.7H170.803V0Z" fill="black"/>
<path d="M183.213 0H170.802V254.869H183.213V0Z" fill="black"/>
<path fill-rule="evenodd" clip-rule="evenodd" d="M46.6958 0H59.1075V242.558H46.6958V0ZM46.6958 261.084V308.052H59.1075V261.084H46.6958Z" fill="black"/>
<path fill-rule="evenodd" clip-rule="evenodd" d="M96.3384 0H108.749V196.346H96.3384V0ZM96.3384 214.99V242.299H108.749V214.99H96.3384Z" fill="black"/>
<path fill-rule="evenodd" clip-rule="evenodd" d="M145.98 0H158.392V242.501H145.98V0ZM145.98 261.144V308.052H158.392V261.144H145.98Z" fill="black"/>
<path d="M193.957 0H181.545V273.629H193.957V0Z" fill="black"/>
<path d="M206.368 0H193.957V302.787H206.368V0Z" fill="black"/>
<path d="M218.779 0H206.367V285.813H218.779V0Z" fill="black"/>
<path d="M243.6 0H231.188V270.336H243.6V0Z" fill="black"/>
<path d="M231.189 301.634H218.777V323.259H231.189V301.634Z" fill="black"/>
<path d="M206.368 317.758H193.957V338.814H206.368V317.758Z" fill="black"/>
<path d="M256.01 0H243.599V285.813H256.01V0Z" fill="black"/>
<path d="M268.421 0H256.01V261.97H268.421V0Z" fill="black"/>
<path d="M293.242 0H280.831V281.284H293.242V0Z" fill="black"/>
<path d="M318.064 323.971H305.652V346.658H318.064V323.971Z" fill="black"/>
<path d="M318.064 361.399H305.652V379.239H318.064V361.399Z" fill="black"/>
<path d="M305.652 0H293.241V293.363H305.652V0Z" fill="black"/>
<path d="M318.064 0H305.652V308.052H318.064V0Z" fill="black"/>
<path d="M355.296 325.213H342.885V351.127H355.296V325.213Z" fill="black"/>
<path d="M479.402 316.056H466.99V335.725H479.402V316.056Z" fill="black"/>
<path d="M404.939 334.709H392.527V353.136H404.939V334.709Z" fill="black"/>
<path d="M404.939 365.155H392.527V384H404.939V365.155Z" fill="black"/>
<path d="M380.117 316.468H367.706V335.313H380.117V316.468Z" fill="black"/>
<path d="M280.831 294.713H268.42V323.267H280.831V294.713Z" fill="black"/>
<path d="M280.831 337.589H268.42V355.713H280.831V337.589Z" fill="black"/>
<path d="M256.01 314.547H243.599V333.392H256.01V314.547Z" fill="black"/>
<path d="M231.189 343.422H218.777V362.268H231.189V343.422Z" fill="black"/>
<path d="M342.885 0H330.473V281.284H342.885V0Z" fill="black"/>
<path d="M355.296 0H342.885V293.363H355.296V0Z" fill="black"/>
<path d="M367.705 0H355.294V261.97H367.705V0Z" fill="black"/>
<path d="M380.117 0H367.706V232.954H380.117V0Z" fill="black"/>
<path d="M392.527 0H380.116V299.456H392.527V0Z" fill="black"/>
<path d="M404.939 0H392.527V321.016H404.939V0Z" fill="black"/>
<path d="M429.759 0H417.348V285.813H429.759V0Z" fill="black"/>
<path d="M454.58 0H442.169V282.884H454.58V0Z" fill="black"/>
<path d="M454.58 300.31H442.169V338.34H454.58V300.31Z" fill="black"/>
<path d="M529.044 322.653H516.633V342.067H529.044V322.653Z" fill="black"/>
<path d="M454.58 349.545H442.169V369.167H454.58V349.545Z" fill="black"/>
<path d="M479.402 0H466.99V299.456H479.402V0Z" fill="black"/>
<path d="M491.813 0H479.402V285.813H491.813V0Z" fill="black"/>
<path d="M442.171 0H429.76V267.773H442.171V0Z" fill="black"/>
<path d="M504.223 0H491.811V322.768H504.223V0Z" fill="black"/>
<path d="M504.223 347.3H491.811V365.893H504.223V347.3Z" fill="black"/>
<path d="M529.044 0H516.633V288.7H529.044V0Z" fill="black"/>
<path d="M541.455 0H529.044V254.869H541.455V0Z" fill="black"/>
<path fill-rule="evenodd" clip-rule="evenodd" d="M218.777 0H231.189V219.813H218.777V0ZM218.777 238.501V254.869H231.189V238.501H218.777Z" fill="black"/>
<path fill-rule="evenodd" clip-rule="evenodd" d="M268.42 0H280.831V196.406H268.42V0ZM268.42 214.932V244.639H280.831V214.932H268.42Z" fill="black"/>
<path fill-rule="evenodd" clip-rule="evenodd" d="M404.937 0H417.348V242.558H404.937V0ZM404.937 261.084V308.052H417.348V261.084H404.937Z" fill="black"/>
<path fill-rule="evenodd" clip-rule="evenodd" d="M454.58 0H466.992V196.346H454.58V0ZM454.58 214.99V242.299H466.992V214.99H454.58Z" fill="black"/>
<path fill-rule="evenodd" clip-rule="evenodd" d="M504.223 0H516.634V242.501H504.223V0ZM504.223 261.144V308.052H516.634V261.144H504.223Z" fill="black"/>
<path fill-rule="evenodd" clip-rule="evenodd" d="M318.063 0H330.475V219.895H318.063V0ZM318.063 246.016V261.97H330.475V246.016H318.063Z" fill="black"/>
<path d="M552.974 0H540.562V273.629H552.974V0Z" fill="black"/>
<path d="M565.384 0H552.972V302.787H565.384V0Z" fill="black"/>
<path d="M577.796 0H565.384V285.813H577.796V0Z" fill="black"/>
<path d="M602.616 0H590.205V270.336H602.616V0Z" fill="black"/>
<path d="M590.205 301.634H577.793V323.259H590.205V301.634Z" fill="black"/>
<path d="M565.384 317.758H552.972V338.814H565.384V317.758Z" fill="black"/>
<path d="M615.027 0H602.615V285.813H615.027V0Z" fill="black"/>
<path d="M627.438 0H615.026V261.97H627.438V0Z" fill="black"/>
<path d="M652.259 0H639.847V281.284H652.259V0Z" fill="black"/>
<path d="M677.077 323.971H664.668V346.658H677.077V323.971Z" fill="black"/>
<path d="M677.077 361.399H664.668V379.239H677.077V361.399Z" fill="black"/>
<path d="M664.668 0H652.259V293.363H664.668V0Z" fill="black"/>
<path d="M677.077 0H664.668V308.052H677.077V0Z" fill="black"/>
<path d="M714.311 325.213H701.902V351.127H714.311V325.213Z" fill="black"/>
<path d="M838.421 316.056H826.005V335.725H838.421V316.056Z" fill="black"/>
<path d="M763.953 334.709H751.545V353.136H763.953V334.709Z" fill="black"/>
<path d="M763.953 365.155H751.545V384H763.953V365.155Z" fill="black"/>
<path d="M739.136 316.468H726.72V335.313H739.136V316.468Z" fill="black"/>
<path d="M639.847 294.713H627.436V323.267H639.847V294.713Z" fill="black"/>
<path d="M639.847 337.589H627.436V355.713H639.847V337.589Z" fill="black"/>
<path d="M615.027 314.547H602.615V333.392H615.027V314.547Z" fill="black"/>
<path d="M590.205 343.422H577.793V362.268H590.205V343.422Z" fill="black"/>
<path d="M701.902 0H689.486V281.284H701.902V0Z" fill="black"/>
<path d="M714.311 0H701.902V293.363H714.311V0Z" fill="black"/>
<path d="M726.72 0H714.311V261.97H726.72V0Z" fill="black"/>
<path d="M739.136 0H726.72V232.954H739.136V0Z" fill="black"/>
<path d="M751.545 0H739.129V299.456H751.545V0Z" fill="black"/>
<path d="M763.953 0H751.545V321.016H763.953V0Z" fill="black"/>
<path d="M788.779 0H776.363V285.813H788.779V0Z" fill="black"/>
<path d="M813.596 0H801.187V282.884H813.596V0Z" fill="black"/>
<path d="M813.596 300.31H801.187V338.34H813.596V300.31Z" fill="black"/>
<path d="M888.064 322.653H875.648V342.067H888.064V322.653Z" fill="black"/>
<path d="M813.596 349.545H801.187V369.167H813.596V349.545Z" fill="black"/>
<path d="M838.421 0H826.005V299.456H838.421V0Z" fill="black"/>
<path d="M850.83 0H838.421V285.813H850.83V0Z" fill="black"/>
<path d="M801.187 0H788.779V267.773H801.187V0Z" fill="black"/>
<path d="M863.239 0H850.83V322.768H863.239V0Z" fill="black"/>
<path d="M863.239 347.3H850.83V365.893H863.239V347.3Z" fill="black"/>
<path d="M888.064 0H875.648V288.7H888.064V0Z" fill="black"/>
<path d="M900.473 0H888.064V254.869H900.473V0Z" fill="black"/>
<path fill-rule="evenodd" clip-rule="evenodd" d="M577.793 0H590.205V219.813H577.793V0ZM577.793 238.501V254.869H590.205V238.501H577.793Z" fill="black"/>
<path fill-rule="evenodd" clip-rule="evenodd" d="M627.436 0H639.847V196.406H627.436V0ZM627.436 214.932V244.639H639.847V214.932H627.436Z" fill="black"/>
<path fill-rule="evenodd" clip-rule="evenodd" d="M763.954 0H776.37V242.558H763.954V0ZM763.954 261.084V308.052H776.37V261.084H763.954Z" fill="black"/>
<path fill-rule="evenodd" clip-rule="evenodd" d="M813.596 0H826.005V196.346H813.596V0ZM813.596 214.99V242.299H826.005V214.99H813.596Z" fill="black"/>
<path fill-rule="evenodd" clip-rule="evenodd" d="M863.239 0H875.648V242.501H863.239V0ZM863.239 261.144V308.052H875.648V261.144H863.239Z" fill="black"/>
<path fill-rule="evenodd" clip-rule="evenodd" d="M677.077 0H689.493V219.895H677.077V0ZM677.077 246.016V261.97H689.493V246.016H677.077Z" fill="black"/>
<path d="M911.216 0H898.807V273.629H911.216V0Z" fill="black"/>
<path d="M923.625 0H911.216V302.787H923.625V0Z" fill="black"/>
<path d="M936.034 0H923.625V285.813H936.034V0Z" fill="black"/>
<path d="M960.858 0H948.442V270.336H960.858V0Z" fill="black"/>
<path d="M948.449 301.634H936.033V323.259H948.449V301.634Z" fill="black"/>
<path d="M923.625 317.758H911.216V338.814H923.625V317.758Z" fill="black"/>
<path d="M973.267 0H960.858V285.813H973.267V0Z" fill="black"/>
<path d="M985.676 0H973.267V261.97H985.676V0Z" fill="black"/>
<path d="M973.267 314.547H960.858V333.392H973.267V314.547Z" fill="black"/>
<path d="M948.449 343.422H936.033V362.268H948.449V343.422Z" fill="black"/>
<path fill-rule="evenodd" clip-rule="evenodd" d="M936.033 0H948.449V219.813H936.033V0ZM936.033 238.501V254.869H948.449V238.501H936.033Z" fill="black"/>
</g>
</svg>
