<svg width="80" height="80" viewBox="0 0 80 80" fill="none" xmlns="http://www.w3.org/2000/svg">
<path d="M70.1672 62.3562L43.5375 12.9031C41.65 9.39687 36.6219 9.39687 34.7328 12.9031L8.10469 62.3562C7.69486 63.1174 7.4894 63.9719 7.50834 64.8361C7.52729 65.7004 7.77 66.545 8.21278 67.2875C8.65557 68.03 9.2833 68.645 10.0347 69.0725C10.7861 69.5 11.6355 69.7253 12.5 69.7266H65.7641C66.6292 69.7267 67.4796 69.5023 68.2321 69.0754C68.9846 68.6485 69.6134 68.0336 70.0571 67.2909C70.5008 66.5482 70.7442 65.703 70.7635 64.8381C70.7828 63.9732 70.5773 63.118 70.1672 62.3562ZM39.1359 62.0703C38.5179 62.0703 37.9137 61.887 37.3998 61.5437C36.8859 61.2003 36.4853 60.7122 36.2488 60.1412C36.0123 59.5702 35.9504 58.9418 36.071 58.3357C36.1916 57.7295 36.4892 57.1726 36.9262 56.7356C37.3633 56.2986 37.9201 56.0009 38.5263 55.8804C39.1325 55.7598 39.7608 55.8217 40.3318 56.0582C40.9028 56.2947 41.3909 56.6953 41.7343 57.2092C42.0777 57.7231 42.2609 58.3272 42.2609 58.9453C42.2609 59.7741 41.9317 60.569 41.3456 61.155C40.7596 61.7411 39.9647 62.0703 39.1359 62.0703ZM42.5297 30.6406L41.6328 49.7031C41.6328 50.3662 41.3694 51.002 40.9006 51.4709C40.4317 51.9397 39.7959 52.2031 39.1328 52.2031C38.4698 52.2031 37.8339 51.9397 37.365 51.4709C36.8962 51.002 36.6328 50.3662 36.6328 49.7031L35.7359 30.6484C35.7158 30.1931 35.7875 29.7384 35.9468 29.3114C36.1062 28.8843 36.3498 28.4938 36.6633 28.1629C36.9768 27.8321 37.3537 27.5678 37.7715 27.3857C38.1894 27.2036 38.6396 27.1075 39.0953 27.1031H39.1281C39.587 27.1029 40.0411 27.1956 40.4632 27.3757C40.8852 27.5558 41.2664 27.8196 41.5837 28.151C41.901 28.4825 42.1478 28.8748 42.3094 29.3043C42.4709 29.7338 42.5437 30.1916 42.5234 30.65L42.5297 30.6406Z" fill="#FF4A5F"/>
</svg>
