<svg width="80" height="80" viewBox="0 0 80 80" fill="none" xmlns="http://www.w3.org/2000/svg">
<path fill-rule="evenodd" clip-rule="evenodd" d="M44 64C46.1217 64 48.1566 64.8429 49.6569 66.3431C51.1571 67.8434 52 69.8783 52 72C52 74.1217 51.1571 76.1566 49.6569 77.6569C48.1566 79.1571 46.1217 80 44 80C41.8783 80 39.8434 79.1571 38.3431 77.6569C36.8429 76.1566 36 74.1217 36 72C36 69.8783 36.8429 67.8434 38.3431 66.3431C39.8434 64.8429 41.8783 64 44 64ZM18.964 52C21.6162 52 24.1597 53.0536 26.0351 54.9289C27.9104 56.8043 28.964 59.3478 28.964 62C28.964 64.6522 27.9104 67.1957 26.0351 69.0711C24.1597 70.9464 21.6162 72 18.964 72C16.3118 72 13.7683 70.9464 11.8929 69.0711C10.0176 67.1957 8.964 64.6522 8.964 62C8.964 59.3478 10.0176 56.8043 11.8929 54.9289C13.7683 53.0536 16.3118 52 18.964 52ZM65.276 54C67.3977 54 69.4326 54.8429 70.9329 56.3431C72.4331 57.8434 73.276 59.8783 73.276 62C73.276 64.1217 72.4331 66.1566 70.9329 67.6569C69.4326 69.1571 67.3977 70 65.276 70C63.1543 70 61.1194 69.1571 59.6191 67.6569C58.1189 66.1566 57.276 64.1217 57.276 62C57.276 59.8783 58.1189 57.8434 59.6191 56.3431C61.1194 54.8429 63.1543 54 65.276 54ZM74 37.276C75.5913 37.276 77.1174 37.9081 78.2426 39.0334C79.3679 40.1586 80 41.6847 80 43.276C80 44.8673 79.3679 46.3934 78.2426 47.5186C77.1174 48.6439 75.5913 49.276 74 49.276C72.4087 49.276 70.8826 48.6439 69.7574 47.5186C68.6321 46.3934 68 44.8673 68 43.276C68 41.6847 68.6321 40.1586 69.7574 39.0334C70.8826 37.9081 72.4087 37.276 74 37.276ZM10 24C12.6522 24 15.1957 25.0536 17.0711 26.9289C18.9464 28.8043 20 31.3478 20 34C20 36.6522 18.9464 39.1957 17.0711 41.0711C15.1957 42.9464 12.6522 44 10 44C7.34784 44 4.8043 42.9464 2.92893 41.0711C1.05357 39.1957 0 36.6522 0 34C0 31.3478 1.05357 28.8043 2.92893 26.9289C4.8043 25.0536 7.34784 24 10 24ZM71.144 20.828C72.2049 20.828 73.2223 21.2494 73.9724 21.9996C74.7226 22.7497 75.144 23.7671 75.144 24.828C75.144 25.8889 74.7226 26.9063 73.9724 27.6564C73.2223 28.4066 72.2049 28.828 71.144 28.828C70.0831 28.828 69.0657 28.4066 68.3156 27.6564C67.5654 26.9063 67.144 25.8889 67.144 24.828C67.144 23.7671 67.5654 22.7497 68.3156 21.9996C69.0657 21.2494 70.0831 20.828 71.144 20.828ZM32 0C35.1826 0 38.2348 1.26428 40.4853 3.51472C42.7357 5.76515 44 8.8174 44 12C44 15.1826 42.7357 18.2348 40.4853 20.4853C38.2348 22.7357 35.1826 24 32 24C28.8174 24 25.7652 22.7357 23.5147 20.4853C21.2643 18.2348 20 15.1826 20 12C20 8.8174 21.2643 5.76515 23.5147 3.51472C25.7652 1.26428 28.8174 0 32 0ZM62 12C62.5304 12 63.0391 12.2107 63.4142 12.5858C63.7893 12.9609 64 13.4696 64 14C64 14.5304 63.7893 15.0391 63.4142 15.4142C63.0391 15.7893 62.5304 16 62 16C61.4696 16 60.9609 15.7893 60.5858 15.4142C60.2107 15.0391 60 14.5304 60 14C60 13.4696 60.2107 12.9609 60.5858 12.5858C60.9609 12.2107 61.4696 12 62 12Z" fill="#7C7C85"/>
</svg>
