<svg width="118" height="118" viewBox="0 0 118 118" fill="none" xmlns="http://www.w3.org/2000/svg">
<g clip-path="url(#clip0_40_693)">
<path d="M93.9957 37.2172C105.772 56.8131 99.4144 82.2407 79.8407 93.9939C60.2443 105.77 34.8174 99.4138 23.0644 79.8403C11.2886 60.2444 17.6226 34.8399 37.2192 23.0638C56.7698 11.2875 82.2198 17.6208 93.9957 37.2172Z" fill="url(#paint0_linear_40_693)"/>
<path d="M68.8166 40.9489C65.5015 36.4906 60.4488 37.3365 54.9845 40.0115L51.0292 33.4041L47.0281 35.8047L50.892 42.2292C49.8403 42.8694 48.7657 43.5324 47.714 44.2183L43.8273 37.7709L39.8263 40.1715L43.7816 46.7332C42.9128 47.2819 42.0669 47.8078 41.2438 48.3108L41.2209 48.2879L35.6881 51.6259L38.2716 55.9013C38.2716 55.9013 41.1981 54.0723 41.1752 54.1408C42.7985 53.1577 43.8959 53.7979 44.5361 54.5295L49.0401 62.0515C49.1544 61.9829 49.2916 61.8914 49.4974 61.8228C49.3602 61.9143 49.223 62.0057 49.063 62.0743L55.3732 72.5913C55.6018 73.14 55.7847 74.146 54.6644 74.809C54.733 74.8319 51.7608 76.5695 51.7608 76.5695L53.8413 81.8509L59.077 78.7186C60.0601 78.147 60.9975 77.5755 61.9577 77.0268L65.9588 83.6799L69.9598 81.2793L66.0045 74.6719C67.1019 74.0317 68.1993 73.3915 69.2282 72.7742L73.1835 79.3359L77.1845 76.9353L73.1835 70.2822C79.6995 65.8239 83.4033 61.297 80.1567 54.621C77.5732 49.2481 73.8008 48.4022 69.4111 49.774C71.0572 47.1676 71.2401 44.1954 68.8166 40.9489ZM71.766 58.5763C74.761 63.5376 65.8902 68.1102 63.1695 69.7334L57.8652 60.9083C60.5859 59.285 68.6566 53.3635 71.766 58.5763ZM62.415 47.2133C65.1357 51.7631 57.7052 55.4898 55.4418 56.8387L50.6405 48.8366C52.904 47.4877 59.58 42.5035 62.415 47.2133Z" fill="white"/>
</g>
<defs>
<linearGradient id="paint0_linear_40_693" x1="2923.48" y1="-2867.76" x2="8777.24" y2="2985.99" gradientUnits="userSpaceOnUse">
<stop stop-color="#F9AA4B"/>
<stop offset="1" stop-color="#F7931A"/>
</linearGradient>
<clipPath id="clip0_40_693">
<rect width="82.7731" height="82.7731" fill="white" transform="translate(0 58.5294) rotate(-45)"/>
</clipPath>
</defs>
</svg>
