<svg width="5120" height="2089" viewBox="0 0 5120 2089" fill="none" xmlns="http://www.w3.org/2000/svg">
<rect width="5120" height="2089" fill="white"/>
<mask id="mask0_1_158" style="mask-type:alpha" maskUnits="userSpaceOnUse" x="0" y="612" width="5120" height="384">
<path d="M5120 612H0V996H5120V612Z" fill="black"/>
</mask>
<g mask="url(#mask0_1_158)">
<path d="M2059.82 935.971H2047.41V958.658H2059.82V935.971Z" fill="black"/>
<path d="M2059.82 973.399H2047.41V991.239H2059.82V973.399Z" fill="black"/>
<path d="M2047.41 612H2035V905.363H2047.41V612Z" fill="black"/>
<path d="M2059.82 612H2047.41V920.052H2059.82V612Z" fill="black"/>
<path d="M2097.05 937.213H2084.64V963.127H2097.05V937.213Z" fill="black"/>
<path d="M2221.16 928.056H2208.75V947.725H2221.16V928.056Z" fill="black"/>
<path d="M2146.7 946.709H2134.28V965.136H2146.7V946.709Z" fill="black"/>
<path d="M2146.7 977.155H2134.28V996H2146.7V977.155Z" fill="black"/>
<path d="M2121.87 928.468H2109.46V947.313H2121.87V928.468Z" fill="black"/>
<path d="M2084.64 612H2072.23V893.284H2084.64V612Z" fill="black"/>
<path d="M2097.05 612H2084.64V905.363H2097.05V612Z" fill="black"/>
<path d="M2109.46 612H2097.05V873.97H2109.46V612Z" fill="black"/>
<path d="M2121.87 612H2109.46V844.954H2121.87V612Z" fill="black"/>
<path d="M2134.29 612H2121.87V911.456H2134.29V612Z" fill="black"/>
<path d="M2146.7 612H2134.28V933.016H2146.7V612Z" fill="black"/>
<path d="M2171.52 612H2159.11V897.813H2171.52V612Z" fill="black"/>
<path d="M2196.34 612H2183.93V894.884H2196.34V612Z" fill="black"/>
<path d="M2196.34 912.31H2183.93V950.34H2196.34V912.31Z" fill="black"/>
<path d="M2270.8 934.653H2258.39V954.067H2270.8V934.653Z" fill="black"/>
<path d="M2196.34 961.545H2183.93V981.167H2196.34V961.545Z" fill="black"/>
<path d="M2221.16 612H2208.75V911.456H2221.16V612Z" fill="black"/>
<path d="M2233.57 612H2221.16V897.813H2233.57V612Z" fill="black"/>
<path d="M2183.93 612H2171.52V879.773H2183.93V612Z" fill="black"/>
<path d="M2245.98 612H2233.57V934.768H2245.98V612Z" fill="black"/>
<path d="M2245.98 959.3H2233.57V977.893H2245.98V959.3Z" fill="black"/>
<path d="M2270.8 612H2258.39V900.7H2270.8V612Z" fill="black"/>
<path d="M2283.21 612H2270.8V866.869H2283.21V612Z" fill="black"/>
<path fill-rule="evenodd" clip-rule="evenodd" d="M2146.7 612H2159.11V854.558H2146.7V612ZM2146.7 873.084V920.052H2159.11V873.084H2146.7Z" fill="black"/>
<path fill-rule="evenodd" clip-rule="evenodd" d="M2196.34 612H2208.75V808.346H2196.34V612ZM2196.34 826.99V854.299H2208.75V826.99H2196.34Z" fill="black"/>
<path fill-rule="evenodd" clip-rule="evenodd" d="M2245.98 612H2258.39V854.501H2245.98V612ZM2245.98 873.144V920.052H2258.39V873.144H2245.98Z" fill="black"/>
<path fill-rule="evenodd" clip-rule="evenodd" d="M2059.82 612H2072.23V831.895H2059.82V612ZM2059.82 858.016V873.97H2072.23V858.016H2059.82Z" fill="black"/>
<path d="M2293.96 612H2281.54V885.629H2293.96V612Z" fill="black"/>
<path d="M2306.37 612H2293.96V914.787H2306.37V612Z" fill="black"/>
<path d="M2318.78 612H2306.37V897.813H2318.78V612Z" fill="black"/>
<path d="M2343.6 612H2331.19V882.336H2343.6V612Z" fill="black"/>
<path d="M2331.19 913.634H2318.78V935.259H2331.19V913.634Z" fill="black"/>
<path d="M2306.37 929.758H2293.96V950.814H2306.37V929.758Z" fill="black"/>
<path d="M2356.01 612H2343.6V897.813H2356.01V612Z" fill="black"/>
<path d="M2368.42 612H2356.01V873.97H2368.42V612Z" fill="black"/>
<path d="M2393.24 612H2380.83V893.284H2393.24V612Z" fill="black"/>
<path d="M2418.06 935.971H2405.65V958.658H2418.06V935.971Z" fill="black"/>
<path d="M2418.06 973.399H2405.65V991.239H2418.06V973.399Z" fill="black"/>
<path d="M2405.65 612H2393.24V905.363H2405.65V612Z" fill="black"/>
<path d="M2418.06 612H2405.65V920.052H2418.06V612Z" fill="black"/>
<path d="M2455.3 937.213H2442.89V963.127H2455.3V937.213Z" fill="black"/>
<path d="M2579.4 928.056H2566.99V947.725H2579.4V928.056Z" fill="black"/>
<path d="M2504.94 946.709H2492.53V965.136H2504.94V946.709Z" fill="black"/>
<path d="M2504.94 977.155H2492.53V996H2504.94V977.155Z" fill="black"/>
<path d="M2480.12 928.468H2467.71V947.313H2480.12V928.468Z" fill="black"/>
<path d="M2380.83 906.713H2368.42V935.267H2380.83V906.713Z" fill="black"/>
<path d="M2380.83 949.589H2368.42V967.713H2380.83V949.589Z" fill="black"/>
<path d="M2356.01 926.547H2343.6V945.392H2356.01V926.547Z" fill="black"/>
<path d="M2331.19 955.422H2318.78V974.268H2331.19V955.422Z" fill="black"/>
<path d="M2442.88 612H2430.47V893.284H2442.88V612Z" fill="black"/>
<path d="M2455.3 612H2442.89V905.363H2455.3V612Z" fill="black"/>
<path d="M2467.71 612H2455.29V873.97H2467.71V612Z" fill="black"/>
<path d="M2480.12 612H2467.71V844.954H2480.12V612Z" fill="black"/>
<path d="M2492.53 612H2480.12V911.456H2492.53V612Z" fill="black"/>
<path d="M2504.94 612H2492.53V933.016H2504.94V612Z" fill="black"/>
<path d="M2529.76 612H2517.35V897.813H2529.76V612Z" fill="black"/>
<path d="M2554.58 612H2542.17V894.884H2554.58V612Z" fill="black"/>
<path d="M2554.58 912.31H2542.17V950.34H2554.58V912.31Z" fill="black"/>
<path d="M2629.04 934.653H2616.63V954.067H2629.04V934.653Z" fill="black"/>
<path d="M2554.58 961.545H2542.17V981.167H2554.58V961.545Z" fill="black"/>
<path d="M2579.4 612H2566.99V911.456H2579.4V612Z" fill="black"/>
<path d="M2591.81 612H2579.4V897.813H2591.81V612Z" fill="black"/>
<path d="M2542.17 612H2529.76V879.773H2542.17V612Z" fill="black"/>
<path d="M2604.22 612H2591.81V934.768H2604.22V612Z" fill="black"/>
<path d="M2604.22 959.3H2591.81V977.893H2604.22V959.3Z" fill="black"/>
<path d="M2629.04 612H2616.63V900.7H2629.04V612Z" fill="black"/>
<path d="M2641.46 612H2629.04V866.869H2641.46V612Z" fill="black"/>
<path fill-rule="evenodd" clip-rule="evenodd" d="M2318.78 612H2331.19V831.813H2318.78V612ZM2318.78 850.501V866.869H2331.19V850.501H2318.78Z" fill="black"/>
<path fill-rule="evenodd" clip-rule="evenodd" d="M2368.42 612H2380.83V808.406H2368.42V612ZM2368.42 826.932V856.639H2380.83V826.932H2368.42Z" fill="black"/>
<path fill-rule="evenodd" clip-rule="evenodd" d="M2504.94 612H2517.35V854.558H2504.94V612ZM2504.94 873.084V920.052H2517.35V873.084H2504.94Z" fill="black"/>
<path fill-rule="evenodd" clip-rule="evenodd" d="M2554.58 612H2566.99V808.346H2554.58V612ZM2554.58 826.99V854.299H2566.99V826.99H2554.58Z" fill="black"/>
<path fill-rule="evenodd" clip-rule="evenodd" d="M2604.22 612H2616.63V854.501H2604.22V612ZM2604.22 873.144V920.052H2616.63V873.144H2604.22Z" fill="black"/>
<path fill-rule="evenodd" clip-rule="evenodd" d="M2418.06 612H2430.48V831.895H2418.06V612ZM2418.06 858.016V873.97H2430.48V858.016H2418.06Z" fill="black"/>
<path d="M2652.97 612H2640.56V885.629H2652.97V612Z" fill="black"/>
<path d="M2665.38 612H2652.97V914.787H2665.38V612Z" fill="black"/>
<path d="M2677.8 612H2665.38V897.813H2677.8V612Z" fill="black"/>
<path d="M2702.62 612H2690.21V882.336H2702.62V612Z" fill="black"/>
<path d="M2690.21 913.634H2677.79V935.259H2690.21V913.634Z" fill="black"/>
<path d="M2665.38 929.758H2652.97V950.814H2665.38V929.758Z" fill="black"/>
<path d="M2715.03 612H2702.61V897.813H2715.03V612Z" fill="black"/>
<path d="M2727.44 612H2715.03V873.97H2727.44V612Z" fill="black"/>
<path d="M2752.26 612H2739.85V893.284H2752.26V612Z" fill="black"/>
<path d="M2777.08 935.971H2764.67V958.658H2777.08V935.971Z" fill="black"/>
<path d="M2777.08 973.399H2764.67V991.239H2777.08V973.399Z" fill="black"/>
<path d="M2764.67 612H2752.26V905.363H2764.67V612Z" fill="black"/>
<path d="M2777.08 612H2764.67V920.052H2777.08V612Z" fill="black"/>
<path d="M2814.31 937.213H2801.9V963.127H2814.31V937.213Z" fill="black"/>
<path d="M2938.42 928.056H2926.01V947.725H2938.42V928.056Z" fill="black"/>
<path d="M2863.95 946.709H2851.54V965.136H2863.95V946.709Z" fill="black"/>
<path d="M2863.95 977.155H2851.54V996H2863.95V977.155Z" fill="black"/>
<path d="M2839.14 928.468H2826.72V947.313H2839.14V928.468Z" fill="black"/>
<path d="M2739.85 906.713H2727.44V935.267H2739.85V906.713Z" fill="black"/>
<path d="M2739.85 949.589H2727.44V967.713H2739.85V949.589Z" fill="black"/>
<path d="M2715.03 926.547H2702.61V945.392H2715.03V926.547Z" fill="black"/>
<path d="M2690.21 955.422H2677.79V974.268H2690.21V955.422Z" fill="black"/>
<path d="M2801.9 612H2789.49V893.284H2801.9V612Z" fill="black"/>
<path d="M2814.31 612H2801.9V905.363H2814.31V612Z" fill="black"/>
<path d="M2826.72 612H2814.31V873.97H2826.72V612Z" fill="black"/>
<path d="M2839.14 612H2826.72V844.954H2839.14V612Z" fill="black"/>
<path d="M2851.54 612H2839.13V911.456H2851.54V612Z" fill="black"/>
<path d="M2863.95 612H2851.54V933.016H2863.95V612Z" fill="black"/>
<path d="M2888.78 612H2876.36V897.813H2888.78V612Z" fill="black"/>
<path d="M2913.6 612H2901.19V894.884H2913.6V612Z" fill="black"/>
<path d="M2913.6 912.31H2901.19V950.34H2913.6V912.31Z" fill="black"/>
<path d="M2988.06 934.653H2975.65V954.067H2988.06V934.653Z" fill="black"/>
<path d="M2913.6 961.545H2901.19V981.167H2913.6V961.545Z" fill="black"/>
<path d="M2938.42 612H2926.01V911.456H2938.42V612Z" fill="black"/>
<path d="M2950.83 612H2938.42V897.813H2950.83V612Z" fill="black"/>
<path d="M2901.19 612H2888.78V879.773H2901.19V612Z" fill="black"/>
<path d="M2963.24 612H2950.83V934.768H2963.24V612Z" fill="black"/>
<path d="M2963.24 959.3H2950.83V977.893H2963.24V959.3Z" fill="black"/>
<path d="M2988.06 612H2975.65V900.7H2988.06V612Z" fill="black"/>
<path d="M3000.47 612H2988.06V866.869H3000.47V612Z" fill="black"/>
<path fill-rule="evenodd" clip-rule="evenodd" d="M2677.79 612H2690.21V831.813H2677.79V612ZM2677.79 850.501V866.869H2690.21V850.501H2677.79Z" fill="black"/>
<path fill-rule="evenodd" clip-rule="evenodd" d="M2727.44 612H2739.85V808.406H2727.44V612ZM2727.44 826.932V856.639H2739.85V826.932H2727.44Z" fill="black"/>
<path fill-rule="evenodd" clip-rule="evenodd" d="M2863.95 612H2876.37V854.558H2863.95V612ZM2863.95 873.084V920.052H2876.37V873.084H2863.95Z" fill="black"/>
<path fill-rule="evenodd" clip-rule="evenodd" d="M2913.6 612H2926.01V808.346H2913.6V612ZM2913.6 826.99V854.299H2926.01V826.99H2913.6Z" fill="black"/>
<path fill-rule="evenodd" clip-rule="evenodd" d="M2963.24 612H2975.65V854.501H2963.24V612ZM2963.24 873.144V920.052H2975.65V873.144H2963.24Z" fill="black"/>
<path fill-rule="evenodd" clip-rule="evenodd" d="M2777.08 612H2789.49V831.895H2777.08V612ZM2777.08 858.016V873.97H2789.49V858.016H2777.08Z" fill="black"/>
<path d="M3011.22 612H2998.81V885.629H3011.22V612Z" fill="black"/>
<path d="M3023.62 612H3011.22V914.787H3023.62V612Z" fill="black"/>
<path d="M3036.03 612H3023.62V897.813H3036.03V612Z" fill="black"/>
<path d="M3060.86 612H3048.44V882.336H3060.86V612Z" fill="black"/>
<path d="M3048.45 913.634H3036.03V935.259H3048.45V913.634Z" fill="black"/>
<path d="M3023.62 929.758H3011.22V950.814H3023.62V929.758Z" fill="black"/>
<path d="M3073.27 612H3060.86V897.813H3073.27V612Z" fill="black"/>
<path d="M3085.68 612H3073.27V873.97H3085.68V612Z" fill="black"/>
<path d="M3073.27 926.547H3060.86V945.392H3073.27V926.547Z" fill="black"/>
<path d="M3048.45 955.422H3036.03V974.268H3048.45V955.422Z" fill="black"/>
<path fill-rule="evenodd" clip-rule="evenodd" d="M3036.03 612H3048.45V831.813H3036.03V612ZM3036.03 850.501V866.869H3048.45V850.501H3036.03Z" fill="black"/>
<path d="M4159.82 935.971H4147.41V958.658H4159.82V935.971Z" fill="black"/>
<path d="M4159.82 973.399H4147.41V991.239H4159.82V973.399Z" fill="black"/>
<path d="M4147.41 612H4135V905.363H4147.41V612Z" fill="black"/>
<path d="M4159.82 612H4147.41V920.052H4159.82V612Z" fill="black"/>
<path d="M4197.05 937.213H4184.64V963.127H4197.05V937.213Z" fill="black"/>
<path d="M4321.16 928.056H4308.75V947.725H4321.16V928.056Z" fill="black"/>
<path d="M4246.7 946.709H4234.28V965.136H4246.7V946.709Z" fill="black"/>
<path d="M4246.7 977.155H4234.28V996H4246.7V977.155Z" fill="black"/>
<path d="M4221.87 928.468H4209.46V947.313H4221.87V928.468Z" fill="black"/>
<path d="M4184.64 612H4172.23V893.284H4184.64V612Z" fill="black"/>
<path d="M4197.05 612H4184.64V905.363H4197.05V612Z" fill="black"/>
<path d="M4209.46 612H4197.05V873.97H4209.46V612Z" fill="black"/>
<path d="M4221.87 612H4209.46V844.954H4221.87V612Z" fill="black"/>
<path d="M4234.29 612H4221.87V911.456H4234.29V612Z" fill="black"/>
<path d="M4246.7 612H4234.28V933.016H4246.7V612Z" fill="black"/>
<path d="M4271.52 612H4259.11V897.813H4271.52V612Z" fill="black"/>
<path d="M4296.34 612H4283.93V894.884H4296.34V612Z" fill="black"/>
<path d="M4296.34 912.31H4283.93V950.34H4296.34V912.31Z" fill="black"/>
<path d="M4370.8 934.653H4358.39V954.067H4370.8V934.653Z" fill="black"/>
<path d="M4296.34 961.545H4283.93V981.167H4296.34V961.545Z" fill="black"/>
<path d="M4321.16 612H4308.75V911.456H4321.16V612Z" fill="black"/>
<path d="M4333.57 612H4321.16V897.813H4333.57V612Z" fill="black"/>
<path d="M4283.93 612H4271.52V879.773H4283.93V612Z" fill="black"/>
<path d="M4345.98 612H4333.57V934.768H4345.98V612Z" fill="black"/>
<path d="M4345.98 959.3H4333.57V977.893H4345.98V959.3Z" fill="black"/>
<path d="M4370.8 612H4358.39V900.7H4370.8V612Z" fill="black"/>
<path d="M4383.21 612H4370.8V866.869H4383.21V612Z" fill="black"/>
<path fill-rule="evenodd" clip-rule="evenodd" d="M4246.7 612H4259.11V854.558H4246.7V612ZM4246.7 873.084V920.052H4259.11V873.084H4246.7Z" fill="black"/>
<path fill-rule="evenodd" clip-rule="evenodd" d="M4296.34 612H4308.75V808.346H4296.34V612ZM4296.34 826.99V854.299H4308.75V826.99H4296.34Z" fill="black"/>
<path fill-rule="evenodd" clip-rule="evenodd" d="M4345.98 612H4358.39V854.501H4345.98V612ZM4345.98 873.144V920.052H4358.39V873.144H4345.98Z" fill="black"/>
<path fill-rule="evenodd" clip-rule="evenodd" d="M4159.82 612H4172.23V831.895H4159.82V612ZM4159.82 858.016V873.97H4172.23V858.016H4159.82Z" fill="black"/>
<path d="M4393.96 612H4381.54V885.629H4393.96V612Z" fill="black"/>
<path d="M4406.37 612H4393.96V914.787H4406.37V612Z" fill="black"/>
<path d="M4418.78 612H4406.37V897.813H4418.78V612Z" fill="black"/>
<path d="M4443.6 612H4431.19V882.336H4443.6V612Z" fill="black"/>
<path d="M4431.19 913.634H4418.78V935.259H4431.19V913.634Z" fill="black"/>
<path d="M4406.37 929.758H4393.96V950.814H4406.37V929.758Z" fill="black"/>
<path d="M4456.01 612H4443.6V897.813H4456.01V612Z" fill="black"/>
<path d="M4468.42 612H4456.01V873.97H4468.42V612Z" fill="black"/>
<path d="M4493.24 612H4480.83V893.284H4493.24V612Z" fill="black"/>
<path d="M4518.06 935.971H4505.65V958.658H4518.06V935.971Z" fill="black"/>
<path d="M4518.06 973.399H4505.65V991.239H4518.06V973.399Z" fill="black"/>
<path d="M4505.65 612H4493.24V905.363H4505.65V612Z" fill="black"/>
<path d="M4518.06 612H4505.65V920.052H4518.06V612Z" fill="black"/>
<path d="M4555.3 937.213H4542.88V963.127H4555.3V937.213Z" fill="black"/>
<path d="M4679.4 928.056H4666.99V947.725H4679.4V928.056Z" fill="black"/>
<path d="M4604.94 946.709H4592.53V965.136H4604.94V946.709Z" fill="black"/>
<path d="M4604.94 977.155H4592.53V996H4604.94V977.155Z" fill="black"/>
<path d="M4580.12 928.468H4567.71V947.313H4580.12V928.468Z" fill="black"/>
<path d="M4480.83 906.713H4468.42V935.267H4480.83V906.713Z" fill="black"/>
<path d="M4480.83 949.589H4468.42V967.713H4480.83V949.589Z" fill="black"/>
<path d="M4456.01 926.547H4443.6V945.392H4456.01V926.547Z" fill="black"/>
<path d="M4431.19 955.422H4418.78V974.268H4431.19V955.422Z" fill="black"/>
<path d="M4542.88 612H4530.47V893.284H4542.88V612Z" fill="black"/>
<path d="M4555.3 612H4542.88V905.363H4555.3V612Z" fill="black"/>
<path d="M4567.71 612H4555.29V873.97H4567.71V612Z" fill="black"/>
<path d="M4580.12 612H4567.71V844.954H4580.12V612Z" fill="black"/>
<path d="M4592.53 612H4580.12V911.456H4592.53V612Z" fill="black"/>
<path d="M4604.94 612H4592.53V933.016H4604.94V612Z" fill="black"/>
<path d="M4629.76 612H4617.35V897.813H4629.76V612Z" fill="black"/>
<path d="M4654.58 612H4642.17V894.884H4654.58V612Z" fill="black"/>
<path d="M4654.58 912.31H4642.17V950.34H4654.58V912.31Z" fill="black"/>
<path d="M4729.04 934.653H4716.63V954.067H4729.04V934.653Z" fill="black"/>
<path d="M4654.58 961.545H4642.17V981.167H4654.58V961.545Z" fill="black"/>
<path d="M4679.4 612H4666.99V911.456H4679.4V612Z" fill="black"/>
<path d="M4691.81 612H4679.4V897.813H4691.81V612Z" fill="black"/>
<path d="M4642.17 612H4629.76V879.773H4642.17V612Z" fill="black"/>
<path d="M4704.22 612H4691.81V934.768H4704.22V612Z" fill="black"/>
<path d="M4704.22 959.3H4691.81V977.893H4704.22V959.3Z" fill="black"/>
<path d="M4729.04 612H4716.63V900.7H4729.04V612Z" fill="black"/>
<path d="M4741.45 612H4729.04V866.869H4741.45V612Z" fill="black"/>
<path fill-rule="evenodd" clip-rule="evenodd" d="M4418.78 612H4431.19V831.813H4418.78V612ZM4418.78 850.501V866.869H4431.19V850.501H4418.78Z" fill="black"/>
<path fill-rule="evenodd" clip-rule="evenodd" d="M4468.42 612H4480.83V808.406H4468.42V612ZM4468.42 826.932V856.639H4480.83V826.932H4468.42Z" fill="black"/>
<path fill-rule="evenodd" clip-rule="evenodd" d="M4604.94 612H4617.35V854.558H4604.94V612ZM4604.94 873.084V920.052H4617.35V873.084H4604.94Z" fill="black"/>
<path fill-rule="evenodd" clip-rule="evenodd" d="M4654.58 612H4666.99V808.346H4654.58V612ZM4654.58 826.99V854.299H4666.99V826.99H4654.58Z" fill="black"/>
<path fill-rule="evenodd" clip-rule="evenodd" d="M4704.22 612H4716.63V854.501H4704.22V612ZM4704.22 873.144V920.052H4716.63V873.144H4704.22Z" fill="black"/>
<path fill-rule="evenodd" clip-rule="evenodd" d="M4518.06 612H4530.48V831.895H4518.06V612ZM4518.06 858.016V873.97H4530.48V858.016H4518.06Z" fill="black"/>
<path d="M4752.97 612H4740.56V885.629H4752.97V612Z" fill="black"/>
<path d="M4765.38 612H4752.97V914.787H4765.38V612Z" fill="black"/>
<path d="M4777.8 612H4765.38V897.813H4777.8V612Z" fill="black"/>
<path d="M4802.62 612H4790.21V882.336H4802.62V612Z" fill="black"/>
<path d="M4790.21 913.634H4777.79V935.259H4790.21V913.634Z" fill="black"/>
<path d="M4765.38 929.758H4752.97V950.814H4765.38V929.758Z" fill="black"/>
<path d="M4815.03 612H4802.61V897.813H4815.03V612Z" fill="black"/>
<path d="M4827.44 612H4815.03V873.97H4827.44V612Z" fill="black"/>
<path d="M4852.26 612H4839.85V893.284H4852.26V612Z" fill="black"/>
<path d="M4877.08 935.971H4864.67V958.658H4877.08V935.971Z" fill="black"/>
<path d="M4877.08 973.399H4864.67V991.239H4877.08V973.399Z" fill="black"/>
<path d="M4864.67 612H4852.26V905.363H4864.67V612Z" fill="black"/>
<path d="M4877.08 612H4864.67V920.052H4877.08V612Z" fill="black"/>
<path d="M4914.31 937.213H4901.9V963.127H4914.31V937.213Z" fill="black"/>
<path d="M5038.42 928.056H5026V947.725H5038.42V928.056Z" fill="black"/>
<path d="M4963.95 946.709H4951.54V965.136H4963.95V946.709Z" fill="black"/>
<path d="M4963.95 977.155H4951.54V996H4963.95V977.155Z" fill="black"/>
<path d="M4939.14 928.468H4926.72V947.313H4939.14V928.468Z" fill="black"/>
<path d="M4839.85 906.713H4827.44V935.267H4839.85V906.713Z" fill="black"/>
<path d="M4839.85 949.589H4827.44V967.713H4839.85V949.589Z" fill="black"/>
<path d="M4815.03 926.547H4802.61V945.392H4815.03V926.547Z" fill="black"/>
<path d="M4790.21 955.422H4777.79V974.268H4790.21V955.422Z" fill="black"/>
<path d="M4901.9 612H4889.49V893.284H4901.9V612Z" fill="black"/>
<path d="M4914.31 612H4901.9V905.363H4914.31V612Z" fill="black"/>
<path d="M4926.72 612H4914.31V873.97H4926.72V612Z" fill="black"/>
<path d="M4939.14 612H4926.72V844.954H4939.14V612Z" fill="black"/>
<path d="M4951.54 612H4939.13V911.456H4951.54V612Z" fill="black"/>
<path d="M4963.95 612H4951.54V933.016H4963.95V612Z" fill="black"/>
<path d="M4988.78 612H4976.36V897.813H4988.78V612Z" fill="black"/>
<path d="M5013.6 612H5001.19V894.884H5013.6V612Z" fill="black"/>
<path d="M5013.6 912.31H5001.19V950.34H5013.6V912.31Z" fill="black"/>
<path d="M5088.06 934.653H5075.65V954.067H5088.06V934.653Z" fill="black"/>
<path d="M5013.6 961.545H5001.19V981.167H5013.6V961.545Z" fill="black"/>
<path d="M5038.42 612H5026V911.456H5038.42V612Z" fill="black"/>
<path d="M5050.83 612H5038.42V897.813H5050.83V612Z" fill="black"/>
<path d="M5001.19 612H4988.78V879.773H5001.19V612Z" fill="black"/>
<path d="M5063.24 612H5050.83V934.768H5063.24V612Z" fill="black"/>
<path d="M5063.24 959.3H5050.83V977.893H5063.24V959.3Z" fill="black"/>
<path d="M5088.06 612H5075.65V900.7H5088.06V612Z" fill="black"/>
<path d="M5100.47 612H5088.06V866.869H5100.47V612Z" fill="black"/>
<path fill-rule="evenodd" clip-rule="evenodd" d="M4777.79 612H4790.21V831.813H4777.79V612ZM4777.79 850.501V866.869H4790.21V850.501H4777.79Z" fill="black"/>
<path fill-rule="evenodd" clip-rule="evenodd" d="M4827.44 612H4839.85V808.406H4827.44V612ZM4827.44 826.932V856.639H4839.85V826.932H4827.44Z" fill="black"/>
<path fill-rule="evenodd" clip-rule="evenodd" d="M4963.95 612H4976.37V854.558H4963.95V612ZM4963.95 873.084V920.052H4976.37V873.084H4963.95Z" fill="black"/>
<path fill-rule="evenodd" clip-rule="evenodd" d="M5013.6 612H5026.01V808.346H5013.6V612ZM5013.6 826.99V854.299H5026.01V826.99H5013.6Z" fill="black"/>
<path fill-rule="evenodd" clip-rule="evenodd" d="M5063.24 612H5075.65V854.501H5063.24V612ZM5063.24 873.144V920.052H5075.65V873.144H5063.24Z" fill="black"/>
<path fill-rule="evenodd" clip-rule="evenodd" d="M4877.08 612H4889.49V831.895H4877.08V612ZM4877.08 858.016V873.97H4889.49V858.016H4877.08Z" fill="black"/>
<path d="M5111.22 612H5098.81V885.629H5111.22V612Z" fill="black"/>
<path d="M5123.62 612H5111.22V914.787H5123.62V612Z" fill="black"/>
<path d="M5123.62 929.758H5111.22V950.814H5123.62V929.758Z" fill="black"/>
<path d="M1009.82 935.971H997.411V958.658H1009.82V935.971Z" fill="black"/>
<path d="M1009.82 973.399H997.411V991.239H1009.82V973.399Z" fill="black"/>
<path d="M997.411 612H985V905.363H997.411V612Z" fill="black"/>
<path d="M1009.82 612H997.411V920.052H1009.82V612Z" fill="black"/>
<path d="M1047.05 937.213H1034.64V963.127H1047.05V937.213Z" fill="black"/>
<path d="M1171.16 928.056H1158.75V947.725H1171.16V928.056Z" fill="black"/>
<path d="M1096.7 946.709H1084.28V965.136H1096.7V946.709Z" fill="black"/>
<path d="M1096.7 977.155H1084.28V996H1096.7V977.155Z" fill="black"/>
<path d="M1071.87 928.468H1059.46V947.313H1071.87V928.468Z" fill="black"/>
<path d="M1034.64 612H1022.23V893.284H1034.64V612Z" fill="black"/>
<path d="M1047.05 612H1034.64V905.363H1047.05V612Z" fill="black"/>
<path d="M1059.46 612H1047.05V873.97H1059.46V612Z" fill="black"/>
<path d="M1071.87 612H1059.46V844.954H1071.87V612Z" fill="black"/>
<path d="M1084.29 612H1071.87V911.456H1084.29V612Z" fill="black"/>
<path d="M1096.7 612H1084.28V933.016H1096.7V612Z" fill="black"/>
<path d="M1121.52 612H1109.11V897.813H1121.52V612Z" fill="black"/>
<path d="M1146.34 612H1133.93V894.884H1146.34V612Z" fill="black"/>
<path d="M1146.34 912.31H1133.93V950.34H1146.34V912.31Z" fill="black"/>
<path d="M1220.8 934.653H1208.39V954.067H1220.8V934.653Z" fill="black"/>
<path d="M1146.34 961.545H1133.93V981.167H1146.34V961.545Z" fill="black"/>
<path d="M1171.16 612H1158.75V911.456H1171.16V612Z" fill="black"/>
<path d="M1183.57 612H1171.16V897.813H1183.57V612Z" fill="black"/>
<path d="M1133.93 612H1121.52V879.773H1133.93V612Z" fill="black"/>
<path d="M1195.98 612H1183.57V934.768H1195.98V612Z" fill="black"/>
<path d="M1195.98 959.3H1183.57V977.893H1195.98V959.3Z" fill="black"/>
<path d="M1220.8 612H1208.39V900.7H1220.8V612Z" fill="black"/>
<path d="M1233.21 612H1220.8V866.869H1233.21V612Z" fill="black"/>
<path fill-rule="evenodd" clip-rule="evenodd" d="M1096.7 612H1109.11V854.558H1096.7V612ZM1096.7 873.084V920.052H1109.11V873.084H1096.7Z" fill="black"/>
<path fill-rule="evenodd" clip-rule="evenodd" d="M1146.34 612H1158.75V808.346H1146.34V612ZM1146.34 826.99V854.299H1158.75V826.99H1146.34Z" fill="black"/>
<path fill-rule="evenodd" clip-rule="evenodd" d="M1195.98 612H1208.39V854.501H1195.98V612ZM1195.98 873.144V920.052H1208.39V873.144H1195.98Z" fill="black"/>
<path fill-rule="evenodd" clip-rule="evenodd" d="M1009.82 612H1022.23V831.895H1009.82V612ZM1009.82 858.016V873.97H1022.23V858.016H1009.82Z" fill="black"/>
<path d="M1243.96 612H1231.54V885.629H1243.96V612Z" fill="black"/>
<path d="M1256.37 612H1243.96V914.787H1256.37V612Z" fill="black"/>
<path d="M1268.78 612H1256.37V897.813H1268.78V612Z" fill="black"/>
<path d="M1293.6 612H1281.19V882.336H1293.6V612Z" fill="black"/>
<path d="M1281.19 913.634H1268.78V935.259H1281.19V913.634Z" fill="black"/>
<path d="M1256.37 929.758H1243.96V950.814H1256.37V929.758Z" fill="black"/>
<path d="M1306.01 612H1293.6V897.813H1306.01V612Z" fill="black"/>
<path d="M1318.42 612H1306.01V873.97H1318.42V612Z" fill="black"/>
<path d="M1343.24 612H1330.83V893.284H1343.24V612Z" fill="black"/>
<path d="M1368.06 935.971H1355.65V958.658H1368.06V935.971Z" fill="black"/>
<path d="M1368.06 973.399H1355.65V991.239H1368.06V973.399Z" fill="black"/>
<path d="M1355.65 612H1343.24V905.363H1355.65V612Z" fill="black"/>
<path d="M1368.06 612H1355.65V920.052H1368.06V612Z" fill="black"/>
<path d="M1405.3 937.213H1392.89V963.127H1405.3V937.213Z" fill="black"/>
<path d="M1529.4 928.056H1516.99V947.725H1529.4V928.056Z" fill="black"/>
<path d="M1454.94 946.709H1442.53V965.136H1454.94V946.709Z" fill="black"/>
<path d="M1454.94 977.155H1442.53V996H1454.94V977.155Z" fill="black"/>
<path d="M1430.12 928.468H1417.71V947.313H1430.12V928.468Z" fill="black"/>
<path d="M1330.83 906.713H1318.42V935.267H1330.83V906.713Z" fill="black"/>
<path d="M1330.83 949.589H1318.42V967.713H1330.83V949.589Z" fill="black"/>
<path d="M1306.01 926.547H1293.6V945.392H1306.01V926.547Z" fill="black"/>
<path d="M1281.19 955.422H1268.78V974.268H1281.19V955.422Z" fill="black"/>
<path d="M1392.88 612H1380.47V893.284H1392.88V612Z" fill="black"/>
<path d="M1405.3 612H1392.89V905.363H1405.3V612Z" fill="black"/>
<path d="M1417.71 612H1405.29V873.97H1417.71V612Z" fill="black"/>
<path d="M1430.12 612H1417.71V844.954H1430.12V612Z" fill="black"/>
<path d="M1442.53 612H1430.12V911.456H1442.53V612Z" fill="black"/>
<path d="M1454.94 612H1442.53V933.016H1454.94V612Z" fill="black"/>
<path d="M1479.76 612H1467.35V897.813H1479.76V612Z" fill="black"/>
<path d="M1504.58 612H1492.17V894.884H1504.58V612Z" fill="black"/>
<path d="M1504.58 912.31H1492.17V950.34H1504.58V912.31Z" fill="black"/>
<path d="M1579.04 934.653H1566.63V954.067H1579.04V934.653Z" fill="black"/>
<path d="M1504.58 961.545H1492.17V981.167H1504.58V961.545Z" fill="black"/>
<path d="M1529.4 612H1516.99V911.456H1529.4V612Z" fill="black"/>
<path d="M1541.81 612H1529.4V897.813H1541.81V612Z" fill="black"/>
<path d="M1492.17 612H1479.76V879.773H1492.17V612Z" fill="black"/>
<path d="M1554.22 612H1541.81V934.768H1554.22V612Z" fill="black"/>
<path d="M1554.22 959.3H1541.81V977.893H1554.22V959.3Z" fill="black"/>
<path d="M1579.04 612H1566.63V900.7H1579.04V612Z" fill="black"/>
<path d="M1591.46 612H1579.04V866.869H1591.46V612Z" fill="black"/>
<path fill-rule="evenodd" clip-rule="evenodd" d="M1268.78 612H1281.19V831.813H1268.78V612ZM1268.78 850.501V866.869H1281.19V850.501H1268.78Z" fill="black"/>
<path fill-rule="evenodd" clip-rule="evenodd" d="M1318.42 612H1330.83V808.406H1318.42V612ZM1318.42 826.932V856.639H1330.83V826.932H1318.42Z" fill="black"/>
<path fill-rule="evenodd" clip-rule="evenodd" d="M1454.94 612H1467.35V854.558H1454.94V612ZM1454.94 873.084V920.052H1467.35V873.084H1454.94Z" fill="black"/>
<path fill-rule="evenodd" clip-rule="evenodd" d="M1504.58 612H1516.99V808.346H1504.58V612ZM1504.58 826.99V854.299H1516.99V826.99H1504.58Z" fill="black"/>
<path fill-rule="evenodd" clip-rule="evenodd" d="M1554.22 612H1566.63V854.501H1554.22V612ZM1554.22 873.144V920.052H1566.63V873.144H1554.22Z" fill="black"/>
<path fill-rule="evenodd" clip-rule="evenodd" d="M1368.06 612H1380.48V831.895H1368.06V612ZM1368.06 858.016V873.97H1380.48V858.016H1368.06Z" fill="black"/>
<path d="M1602.97 612H1590.56V885.629H1602.97V612Z" fill="black"/>
<path d="M1615.38 612H1602.97V914.787H1615.38V612Z" fill="black"/>
<path d="M1627.8 612H1615.38V897.813H1627.8V612Z" fill="black"/>
<path d="M1652.62 612H1640.21V882.336H1652.62V612Z" fill="black"/>
<path d="M1640.21 913.634H1627.79V935.259H1640.21V913.634Z" fill="black"/>
<path d="M1615.38 929.758H1602.97V950.814H1615.38V929.758Z" fill="black"/>
<path d="M1665.03 612H1652.61V897.813H1665.03V612Z" fill="black"/>
<path d="M1677.44 612H1665.03V873.97H1677.44V612Z" fill="black"/>
<path d="M1702.26 612H1689.85V893.284H1702.26V612Z" fill="black"/>
<path d="M1727.08 935.971H1714.67V958.658H1727.08V935.971Z" fill="black"/>
<path d="M1727.08 973.399H1714.67V991.239H1727.08V973.399Z" fill="black"/>
<path d="M1714.67 612H1702.26V905.363H1714.67V612Z" fill="black"/>
<path d="M1727.08 612H1714.67V920.052H1727.08V612Z" fill="black"/>
<path d="M1764.31 937.213H1751.9V963.127H1764.31V937.213Z" fill="black"/>
<path d="M1888.42 928.056H1876.01V947.725H1888.42V928.056Z" fill="black"/>
<path d="M1813.95 946.709H1801.54V965.136H1813.95V946.709Z" fill="black"/>
<path d="M1813.95 977.155H1801.54V996H1813.95V977.155Z" fill="black"/>
<path d="M1789.14 928.468H1776.72V947.313H1789.14V928.468Z" fill="black"/>
<path d="M1689.85 906.713H1677.44V935.267H1689.85V906.713Z" fill="black"/>
<path d="M1689.85 949.589H1677.44V967.713H1689.85V949.589Z" fill="black"/>
<path d="M1665.03 926.547H1652.61V945.392H1665.03V926.547Z" fill="black"/>
<path d="M1640.21 955.422H1627.79V974.268H1640.21V955.422Z" fill="black"/>
<path d="M1751.9 612H1739.49V893.284H1751.9V612Z" fill="black"/>
<path d="M1764.31 612H1751.9V905.363H1764.31V612Z" fill="black"/>
<path d="M1776.72 612H1764.31V873.97H1776.72V612Z" fill="black"/>
<path d="M1789.14 612H1776.72V844.954H1789.14V612Z" fill="black"/>
<path d="M1801.54 612H1789.13V911.456H1801.54V612Z" fill="black"/>
<path d="M1813.95 612H1801.54V933.016H1813.95V612Z" fill="black"/>
<path d="M1838.78 612H1826.36V897.813H1838.78V612Z" fill="black"/>
<path d="M1863.6 612H1851.19V894.884H1863.6V612Z" fill="black"/>
<path d="M1863.6 912.31H1851.19V950.34H1863.6V912.31Z" fill="black"/>
<path d="M1938.06 934.653H1925.65V954.067H1938.06V934.653Z" fill="black"/>
<path d="M1863.6 961.545H1851.19V981.167H1863.6V961.545Z" fill="black"/>
<path d="M1888.42 612H1876.01V911.456H1888.42V612Z" fill="black"/>
<path d="M1900.83 612H1888.42V897.813H1900.83V612Z" fill="black"/>
<path d="M1851.19 612H1838.78V879.773H1851.19V612Z" fill="black"/>
<path d="M1913.24 612H1900.83V934.768H1913.24V612Z" fill="black"/>
<path d="M1913.24 959.3H1900.83V977.893H1913.24V959.3Z" fill="black"/>
<path d="M1938.06 612H1925.65V900.7H1938.06V612Z" fill="black"/>
<path d="M1950.47 612H1938.06V866.869H1950.47V612Z" fill="black"/>
<path fill-rule="evenodd" clip-rule="evenodd" d="M1627.79 612H1640.21V831.813H1627.79V612ZM1627.79 850.501V866.869H1640.21V850.501H1627.79Z" fill="black"/>
<path fill-rule="evenodd" clip-rule="evenodd" d="M1677.44 612H1689.85V808.406H1677.44V612ZM1677.44 826.932V856.639H1689.85V826.932H1677.44Z" fill="black"/>
<path fill-rule="evenodd" clip-rule="evenodd" d="M1813.95 612H1826.37V854.558H1813.95V612ZM1813.95 873.084V920.052H1826.37V873.084H1813.95Z" fill="black"/>
<path fill-rule="evenodd" clip-rule="evenodd" d="M1863.6 612H1876.01V808.346H1863.6V612ZM1863.6 826.99V854.299H1876.01V826.99H1863.6Z" fill="black"/>
<path fill-rule="evenodd" clip-rule="evenodd" d="M1913.24 612H1925.65V854.501H1913.24V612ZM1913.24 873.144V920.052H1925.65V873.144H1913.24Z" fill="black"/>
<path fill-rule="evenodd" clip-rule="evenodd" d="M1727.08 612H1739.49V831.895H1727.08V612ZM1727.08 858.016V873.97H1739.49V858.016H1727.08Z" fill="black"/>
<path d="M1961.22 612H1948.81V885.629H1961.22V612Z" fill="black"/>
<path d="M1973.62 612H1961.22V914.787H1973.62V612Z" fill="black"/>
<path d="M1986.03 612H1973.62V897.813H1986.03V612Z" fill="black"/>
<path d="M2010.86 612H1998.44V882.336H2010.86V612Z" fill="black"/>
<path d="M1998.45 913.634H1986.03V935.259H1998.45V913.634Z" fill="black"/>
<path d="M1973.62 929.758H1961.22V950.814H1973.62V929.758Z" fill="black"/>
<path d="M2023.27 612H2010.86V897.813H2023.27V612Z" fill="black"/>
<path d="M2035.68 612H2023.27V873.97H2035.68V612Z" fill="black"/>
<path d="M2023.27 926.547H2010.86V945.392H2023.27V926.547Z" fill="black"/>
<path d="M1998.45 955.422H1986.03V974.268H1998.45V955.422Z" fill="black"/>
<path fill-rule="evenodd" clip-rule="evenodd" d="M1986.03 612H1998.45V831.813H1986.03V612ZM1986.03 850.501V866.869H1998.45V850.501H1986.03Z" fill="black"/>
<path d="M3109.82 935.971H3097.41V958.658H3109.82V935.971Z" fill="black"/>
<path d="M3109.82 973.399H3097.41V991.239H3109.82V973.399Z" fill="black"/>
<path d="M3097.41 612H3085V905.363H3097.41V612Z" fill="black"/>
<path d="M3109.82 612H3097.41V920.052H3109.82V612Z" fill="black"/>
<path d="M3147.05 937.213H3134.64V963.127H3147.05V937.213Z" fill="black"/>
<path d="M3271.16 928.056H3258.75V947.725H3271.16V928.056Z" fill="black"/>
<path d="M3196.7 946.709H3184.28V965.136H3196.7V946.709Z" fill="black"/>
<path d="M3196.7 977.155H3184.28V996H3196.7V977.155Z" fill="black"/>
<path d="M3171.87 928.468H3159.46V947.313H3171.87V928.468Z" fill="black"/>
<path d="M3134.64 612H3122.23V893.284H3134.64V612Z" fill="black"/>
<path d="M3147.05 612H3134.64V905.363H3147.05V612Z" fill="black"/>
<path d="M3159.46 612H3147.05V873.97H3159.46V612Z" fill="black"/>
<path d="M3171.87 612H3159.46V844.954H3171.87V612Z" fill="black"/>
<path d="M3184.29 612H3171.87V911.456H3184.29V612Z" fill="black"/>
<path d="M3196.7 612H3184.28V933.016H3196.7V612Z" fill="black"/>
<path d="M3221.52 612H3209.11V897.813H3221.52V612Z" fill="black"/>
<path d="M3246.34 612H3233.93V894.884H3246.34V612Z" fill="black"/>
<path d="M3246.34 912.31H3233.93V950.34H3246.34V912.31Z" fill="black"/>
<path d="M3320.8 934.653H3308.39V954.067H3320.8V934.653Z" fill="black"/>
<path d="M3246.34 961.545H3233.93V981.167H3246.34V961.545Z" fill="black"/>
<path d="M3271.16 612H3258.75V911.456H3271.16V612Z" fill="black"/>
<path d="M3283.57 612H3271.16V897.813H3283.57V612Z" fill="black"/>
<path d="M3233.93 612H3221.52V879.773H3233.93V612Z" fill="black"/>
<path d="M3295.98 612H3283.57V934.768H3295.98V612Z" fill="black"/>
<path d="M3295.98 959.3H3283.57V977.893H3295.98V959.3Z" fill="black"/>
<path d="M3320.8 612H3308.39V900.7H3320.8V612Z" fill="black"/>
<path d="M3333.21 612H3320.8V866.869H3333.21V612Z" fill="black"/>
<path fill-rule="evenodd" clip-rule="evenodd" d="M3196.7 612H3209.11V854.558H3196.7V612ZM3196.7 873.084V920.052H3209.11V873.084H3196.7Z" fill="black"/>
<path fill-rule="evenodd" clip-rule="evenodd" d="M3246.34 612H3258.75V808.346H3246.34V612ZM3246.34 826.99V854.299H3258.75V826.99H3246.34Z" fill="black"/>
<path fill-rule="evenodd" clip-rule="evenodd" d="M3295.98 612H3308.39V854.501H3295.98V612ZM3295.98 873.144V920.052H3308.39V873.144H3295.98Z" fill="black"/>
<path fill-rule="evenodd" clip-rule="evenodd" d="M3109.82 612H3122.23V831.895H3109.82V612ZM3109.82 858.016V873.97H3122.23V858.016H3109.82Z" fill="black"/>
<path d="M3343.96 612H3331.54V885.629H3343.96V612Z" fill="black"/>
<path d="M3356.37 612H3343.96V914.787H3356.37V612Z" fill="black"/>
<path d="M3368.78 612H3356.37V897.813H3368.78V612Z" fill="black"/>
<path d="M3393.6 612H3381.19V882.336H3393.6V612Z" fill="black"/>
<path d="M3381.19 913.634H3368.78V935.259H3381.19V913.634Z" fill="black"/>
<path d="M3356.37 929.758H3343.96V950.814H3356.37V929.758Z" fill="black"/>
<path d="M3406.01 612H3393.6V897.813H3406.01V612Z" fill="black"/>
<path d="M3418.42 612H3406.01V873.97H3418.42V612Z" fill="black"/>
<path d="M3443.24 612H3430.83V893.284H3443.24V612Z" fill="black"/>
<path d="M3468.06 935.971H3455.65V958.658H3468.06V935.971Z" fill="black"/>
<path d="M3468.06 973.399H3455.65V991.239H3468.06V973.399Z" fill="black"/>
<path d="M3455.65 612H3443.24V905.363H3455.65V612Z" fill="black"/>
<path d="M3468.06 612H3455.65V920.052H3468.06V612Z" fill="black"/>
<path d="M3505.3 937.213H3492.89V963.127H3505.3V937.213Z" fill="black"/>
<path d="M3629.4 928.056H3616.99V947.725H3629.4V928.056Z" fill="black"/>
<path d="M3554.94 946.709H3542.53V965.136H3554.94V946.709Z" fill="black"/>
<path d="M3554.94 977.155H3542.53V996H3554.94V977.155Z" fill="black"/>
<path d="M3530.12 928.468H3517.71V947.313H3530.12V928.468Z" fill="black"/>
<path d="M3430.83 906.713H3418.42V935.267H3430.83V906.713Z" fill="black"/>
<path d="M3430.83 949.589H3418.42V967.713H3430.83V949.589Z" fill="black"/>
<path d="M3406.01 926.547H3393.6V945.392H3406.01V926.547Z" fill="black"/>
<path d="M3381.19 955.422H3368.78V974.268H3381.19V955.422Z" fill="black"/>
<path d="M3492.88 612H3480.47V893.284H3492.88V612Z" fill="black"/>
<path d="M3505.3 612H3492.89V905.363H3505.3V612Z" fill="black"/>
<path d="M3517.71 612H3505.29V873.97H3517.71V612Z" fill="black"/>
<path d="M3530.12 612H3517.71V844.954H3530.12V612Z" fill="black"/>
<path d="M3542.53 612H3530.12V911.456H3542.53V612Z" fill="black"/>
<path d="M3554.94 612H3542.53V933.016H3554.94V612Z" fill="black"/>
<path d="M3579.76 612H3567.35V897.813H3579.76V612Z" fill="black"/>
<path d="M3604.58 612H3592.17V894.884H3604.58V612Z" fill="black"/>
<path d="M3604.58 912.31H3592.17V950.34H3604.58V912.31Z" fill="black"/>
<path d="M3679.04 934.653H3666.63V954.067H3679.04V934.653Z" fill="black"/>
<path d="M3604.58 961.545H3592.17V981.167H3604.58V961.545Z" fill="black"/>
<path d="M3629.4 612H3616.99V911.456H3629.4V612Z" fill="black"/>
<path d="M3641.81 612H3629.4V897.813H3641.81V612Z" fill="black"/>
<path d="M3592.17 612H3579.76V879.773H3592.17V612Z" fill="black"/>
<path d="M3654.22 612H3641.81V934.768H3654.22V612Z" fill="black"/>
<path d="M3654.22 959.3H3641.81V977.893H3654.22V959.3Z" fill="black"/>
<path d="M3679.04 612H3666.63V900.7H3679.04V612Z" fill="black"/>
<path d="M3691.46 612H3679.04V866.869H3691.46V612Z" fill="black"/>
<path fill-rule="evenodd" clip-rule="evenodd" d="M3368.78 612H3381.19V831.813H3368.78V612ZM3368.78 850.501V866.869H3381.19V850.501H3368.78Z" fill="black"/>
<path fill-rule="evenodd" clip-rule="evenodd" d="M3418.42 612H3430.83V808.406H3418.42V612ZM3418.42 826.932V856.639H3430.83V826.932H3418.42Z" fill="black"/>
<path fill-rule="evenodd" clip-rule="evenodd" d="M3554.94 612H3567.35V854.558H3554.94V612ZM3554.94 873.084V920.052H3567.35V873.084H3554.94Z" fill="black"/>
<path fill-rule="evenodd" clip-rule="evenodd" d="M3604.58 612H3616.99V808.346H3604.58V612ZM3604.58 826.99V854.299H3616.99V826.99H3604.58Z" fill="black"/>
<path fill-rule="evenodd" clip-rule="evenodd" d="M3654.22 612H3666.63V854.501H3654.22V612ZM3654.22 873.144V920.052H3666.63V873.144H3654.22Z" fill="black"/>
<path fill-rule="evenodd" clip-rule="evenodd" d="M3468.06 612H3480.48V831.895H3468.06V612ZM3468.06 858.016V873.97H3480.48V858.016H3468.06Z" fill="black"/>
<path d="M3702.97 612H3690.56V885.629H3702.97V612Z" fill="black"/>
<path d="M3715.38 612H3702.97V914.787H3715.38V612Z" fill="black"/>
<path d="M3727.8 612H3715.38V897.813H3727.8V612Z" fill="black"/>
<path d="M3752.62 612H3740.21V882.336H3752.62V612Z" fill="black"/>
<path d="M3740.21 913.634H3727.79V935.259H3740.21V913.634Z" fill="black"/>
<path d="M3715.38 929.758H3702.97V950.814H3715.38V929.758Z" fill="black"/>
<path d="M3765.03 612H3752.61V897.813H3765.03V612Z" fill="black"/>
<path d="M3777.44 612H3765.03V873.97H3777.44V612Z" fill="black"/>
<path d="M3802.26 612H3789.85V893.284H3802.26V612Z" fill="black"/>
<path d="M3827.08 935.971H3814.67V958.658H3827.08V935.971Z" fill="black"/>
<path d="M3827.08 973.399H3814.67V991.239H3827.08V973.399Z" fill="black"/>
<path d="M3814.67 612H3802.26V905.363H3814.67V612Z" fill="black"/>
<path d="M3827.08 612H3814.67V920.052H3827.08V612Z" fill="black"/>
<path d="M3864.31 937.213H3851.9V963.127H3864.31V937.213Z" fill="black"/>
<path d="M3988.42 928.056H3976.01V947.725H3988.42V928.056Z" fill="black"/>
<path d="M3913.95 946.709H3901.54V965.136H3913.95V946.709Z" fill="black"/>
<path d="M3913.95 977.155H3901.54V996H3913.95V977.155Z" fill="black"/>
<path d="M3889.14 928.468H3876.72V947.313H3889.14V928.468Z" fill="black"/>
<path d="M3789.85 906.713H3777.44V935.267H3789.85V906.713Z" fill="black"/>
<path d="M3789.85 949.589H3777.44V967.713H3789.85V949.589Z" fill="black"/>
<path d="M3765.03 926.547H3752.61V945.392H3765.03V926.547Z" fill="black"/>
<path d="M3740.21 955.422H3727.79V974.268H3740.21V955.422Z" fill="black"/>
<path d="M3851.9 612H3839.49V893.284H3851.9V612Z" fill="black"/>
<path d="M3864.31 612H3851.9V905.363H3864.31V612Z" fill="black"/>
<path d="M3876.72 612H3864.31V873.97H3876.72V612Z" fill="black"/>
<path d="M3889.14 612H3876.72V844.954H3889.14V612Z" fill="black"/>
<path d="M3901.54 612H3889.13V911.456H3901.54V612Z" fill="black"/>
<path d="M3913.95 612H3901.54V933.016H3913.95V612Z" fill="black"/>
<path d="M3938.78 612H3926.36V897.813H3938.78V612Z" fill="black"/>
<path d="M3963.6 612H3951.19V894.884H3963.6V612Z" fill="black"/>
<path d="M3963.6 912.31H3951.19V950.34H3963.6V912.31Z" fill="black"/>
<path d="M4038.06 934.653H4025.65V954.067H4038.06V934.653Z" fill="black"/>
<path d="M3963.6 961.545H3951.19V981.167H3963.6V961.545Z" fill="black"/>
<path d="M3988.42 612H3976.01V911.456H3988.42V612Z" fill="black"/>
<path d="M4000.83 612H3988.42V897.813H4000.83V612Z" fill="black"/>
<path d="M3951.19 612H3938.78V879.773H3951.19V612Z" fill="black"/>
<path d="M4013.24 612H4000.83V934.768H4013.24V612Z" fill="black"/>
<path d="M4013.24 959.3H4000.83V977.893H4013.24V959.3Z" fill="black"/>
<path d="M4038.06 612H4025.65V900.7H4038.06V612Z" fill="black"/>
<path d="M4050.47 612H4038.06V866.869H4050.47V612Z" fill="black"/>
<path fill-rule="evenodd" clip-rule="evenodd" d="M3727.79 612H3740.21V831.813H3727.79V612ZM3727.79 850.501V866.869H3740.21V850.501H3727.79Z" fill="black"/>
<path fill-rule="evenodd" clip-rule="evenodd" d="M3777.44 612H3789.85V808.406H3777.44V612ZM3777.44 826.932V856.639H3789.85V826.932H3777.44Z" fill="black"/>
<path fill-rule="evenodd" clip-rule="evenodd" d="M3913.95 612H3926.37V854.558H3913.95V612ZM3913.95 873.084V920.052H3926.37V873.084H3913.95Z" fill="black"/>
<path fill-rule="evenodd" clip-rule="evenodd" d="M3963.6 612H3976.01V808.346H3963.6V612ZM3963.6 826.99V854.299H3976.01V826.99H3963.6Z" fill="black"/>
<path fill-rule="evenodd" clip-rule="evenodd" d="M4013.24 612H4025.65V854.501H4013.24V612ZM4013.24 873.144V920.052H4025.65V873.144H4013.24Z" fill="black"/>
<path fill-rule="evenodd" clip-rule="evenodd" d="M3827.08 612H3839.49V831.895H3827.08V612ZM3827.08 858.016V873.97H3839.49V858.016H3827.08Z" fill="black"/>
<path d="M4061.22 612H4048.81V885.629H4061.22V612Z" fill="black"/>
<path d="M4073.62 612H4061.22V914.787H4073.62V612Z" fill="black"/>
<path d="M4086.03 612H4073.62V897.813H4086.03V612Z" fill="black"/>
<path d="M4110.86 612H4098.44V882.336H4110.86V612Z" fill="black"/>
<path d="M4098.45 913.634H4086.03V935.259H4098.45V913.634Z" fill="black"/>
<path d="M4073.62 929.758H4061.22V950.814H4073.62V929.758Z" fill="black"/>
<path d="M4123.27 612H4110.86V897.813H4123.27V612Z" fill="black"/>
<path d="M4135.68 612H4123.27V873.97H4135.68V612Z" fill="black"/>
<path d="M4123.27 926.547H4110.86V945.392H4123.27V926.547Z" fill="black"/>
<path d="M4098.45 955.422H4086.03V974.268H4098.45V955.422Z" fill="black"/>
<path fill-rule="evenodd" clip-rule="evenodd" d="M4086.03 612H4098.45V831.813H4086.03V612ZM4086.03 850.501V866.869H4098.45V850.501H4086.03Z" fill="black"/>
<path d="M121.161 928.056H108.749V947.725H121.161V928.056Z" fill="black"/>
<path d="M46.6957 946.709H34.2847V965.136H46.6957V946.709Z" fill="black"/>
<path d="M46.6957 977.155H34.2847V996H46.6957V977.155Z" fill="black"/>
<path d="M21.8744 928.468H9.46338V947.313H21.8744V928.468Z" fill="black"/>
<path d="M9.46486 612H-2.94629V873.97H9.46486V612Z" fill="black"/>
<path d="M21.8744 612H9.46338V844.954H21.8744V612Z" fill="black"/>
<path d="M34.2862 612H21.8745V911.456H34.2862V612Z" fill="black"/>
<path d="M46.6957 612H34.2847V933.016H46.6957V612Z" fill="black"/>
<path d="M71.5172 612H59.1055V897.813H71.5172V612Z" fill="black"/>
<path d="M96.3397 612H83.9287V894.884H96.3397V612Z" fill="black"/>
<path d="M96.3397 912.31H83.9287V950.34H96.3397V912.31Z" fill="black"/>
<path d="M170.803 934.653H158.392V954.067H170.803V934.653Z" fill="black"/>
<path d="M96.3397 961.545H83.9287V981.167H96.3397V961.545Z" fill="black"/>
<path d="M121.161 612H108.749V911.456H121.161V612Z" fill="black"/>
<path d="M133.571 612H121.16V897.813H133.571V612Z" fill="black"/>
<path d="M83.9288 612H71.5171V879.773H83.9288V612Z" fill="black"/>
<path d="M145.982 612H133.57V934.768H145.982V612Z" fill="black"/>
<path d="M145.982 959.3H133.57V977.893H145.982V959.3Z" fill="black"/>
<path d="M170.803 612H158.392V900.7H170.803V612Z" fill="black"/>
<path d="M183.213 612H170.802V866.869H183.213V612Z" fill="black"/>
<path fill-rule="evenodd" clip-rule="evenodd" d="M46.6958 612H59.1075V854.558H46.6958V612ZM46.6958 873.084V920.052H59.1075V873.084H46.6958Z" fill="black"/>
<path fill-rule="evenodd" clip-rule="evenodd" d="M96.3384 612H108.749V808.346H96.3384V612ZM96.3384 826.99V854.299H108.749V826.99H96.3384Z" fill="black"/>
<path fill-rule="evenodd" clip-rule="evenodd" d="M145.98 612H158.392V854.501H145.98V612ZM145.98 873.144V920.052H158.392V873.144H145.98Z" fill="black"/>
<path d="M193.957 612H181.545V885.629H193.957V612Z" fill="black"/>
<path d="M206.368 612H193.957V914.787H206.368V612Z" fill="black"/>
<path d="M218.779 612H206.367V897.813H218.779V612Z" fill="black"/>
<path d="M243.6 612H231.188V882.336H243.6V612Z" fill="black"/>
<path d="M231.189 913.634H218.777V935.259H231.189V913.634Z" fill="black"/>
<path d="M206.368 929.758H193.957V950.814H206.368V929.758Z" fill="black"/>
<path d="M256.01 612H243.599V897.813H256.01V612Z" fill="black"/>
<path d="M268.421 612H256.01V873.97H268.421V612Z" fill="black"/>
<path d="M293.242 612H280.831V893.284H293.242V612Z" fill="black"/>
<path d="M318.064 935.971H305.652V958.658H318.064V935.971Z" fill="black"/>
<path d="M318.064 973.399H305.652V991.239H318.064V973.399Z" fill="black"/>
<path d="M305.652 612H293.241V905.363H305.652V612Z" fill="black"/>
<path d="M318.064 612H305.652V920.052H318.064V612Z" fill="black"/>
<path d="M355.296 937.213H342.885V963.127H355.296V937.213Z" fill="black"/>
<path d="M479.402 928.056H466.99V947.725H479.402V928.056Z" fill="black"/>
<path d="M404.939 946.709H392.527V965.136H404.939V946.709Z" fill="black"/>
<path d="M404.939 977.155H392.527V996H404.939V977.155Z" fill="black"/>
<path d="M380.117 928.468H367.706V947.313H380.117V928.468Z" fill="black"/>
<path d="M280.831 906.713H268.42V935.267H280.831V906.713Z" fill="black"/>
<path d="M280.831 949.589H268.42V967.713H280.831V949.589Z" fill="black"/>
<path d="M256.01 926.547H243.599V945.392H256.01V926.547Z" fill="black"/>
<path d="M231.189 955.422H218.777V974.268H231.189V955.422Z" fill="black"/>
<path d="M342.885 612H330.473V893.284H342.885V612Z" fill="black"/>
<path d="M355.296 612H342.885V905.363H355.296V612Z" fill="black"/>
<path d="M367.705 612H355.294V873.97H367.705V612Z" fill="black"/>
<path d="M380.117 612H367.706V844.954H380.117V612Z" fill="black"/>
<path d="M392.527 612H380.116V911.456H392.527V612Z" fill="black"/>
<path d="M404.939 612H392.527V933.016H404.939V612Z" fill="black"/>
<path d="M429.759 612H417.348V897.813H429.759V612Z" fill="black"/>
<path d="M454.58 612H442.169V894.884H454.58V612Z" fill="black"/>
<path d="M454.58 912.31H442.169V950.34H454.58V912.31Z" fill="black"/>
<path d="M529.044 934.653H516.633V954.067H529.044V934.653Z" fill="black"/>
<path d="M454.58 961.545H442.169V981.167H454.58V961.545Z" fill="black"/>
<path d="M479.402 612H466.99V911.456H479.402V612Z" fill="black"/>
<path d="M491.813 612H479.402V897.813H491.813V612Z" fill="black"/>
<path d="M442.171 612H429.76V879.773H442.171V612Z" fill="black"/>
<path d="M504.223 612H491.811V934.768H504.223V612Z" fill="black"/>
<path d="M504.223 959.3H491.811V977.893H504.223V959.3Z" fill="black"/>
<path d="M529.044 612H516.633V900.7H529.044V612Z" fill="black"/>
<path d="M541.455 612H529.044V866.869H541.455V612Z" fill="black"/>
<path fill-rule="evenodd" clip-rule="evenodd" d="M218.777 612H231.189V831.813H218.777V612ZM218.777 850.501V866.869H231.189V850.501H218.777Z" fill="black"/>
<path fill-rule="evenodd" clip-rule="evenodd" d="M268.42 612H280.831V808.406H268.42V612ZM268.42 826.932V856.639H280.831V826.932H268.42Z" fill="black"/>
<path fill-rule="evenodd" clip-rule="evenodd" d="M404.937 612H417.348V854.558H404.937V612ZM404.937 873.084V920.052H417.348V873.084H404.937Z" fill="black"/>
<path fill-rule="evenodd" clip-rule="evenodd" d="M454.58 612H466.992V808.346H454.58V612ZM454.58 826.99V854.299H466.992V826.99H454.58Z" fill="black"/>
<path fill-rule="evenodd" clip-rule="evenodd" d="M504.223 612H516.634V854.501H504.223V612ZM504.223 873.144V920.052H516.634V873.144H504.223Z" fill="black"/>
<path fill-rule="evenodd" clip-rule="evenodd" d="M318.063 612H330.475V831.895H318.063V612ZM318.063 858.016V873.97H330.475V858.016H318.063Z" fill="black"/>
<path d="M552.974 612H540.562V885.629H552.974V612Z" fill="black"/>
<path d="M565.384 612H552.972V914.787H565.384V612Z" fill="black"/>
<path d="M577.796 612H565.384V897.813H577.796V612Z" fill="black"/>
<path d="M602.616 612H590.205V882.336H602.616V612Z" fill="black"/>
<path d="M590.205 913.634H577.793V935.259H590.205V913.634Z" fill="black"/>
<path d="M565.384 929.758H552.972V950.814H565.384V929.758Z" fill="black"/>
<path d="M615.027 612H602.615V897.813H615.027V612Z" fill="black"/>
<path d="M627.438 612H615.026V873.97H627.438V612Z" fill="black"/>
<path d="M652.259 612H639.847V893.284H652.259V612Z" fill="black"/>
<path d="M677.077 935.971H664.668V958.658H677.077V935.971Z" fill="black"/>
<path d="M677.077 973.399H664.668V991.239H677.077V973.399Z" fill="black"/>
<path d="M664.668 612H652.259V905.363H664.668V612Z" fill="black"/>
<path d="M677.077 612H664.668V920.052H677.077V612Z" fill="black"/>
<path d="M714.311 937.213H701.902V963.127H714.311V937.213Z" fill="black"/>
<path d="M838.421 928.056H826.005V947.725H838.421V928.056Z" fill="black"/>
<path d="M763.953 946.709H751.545V965.136H763.953V946.709Z" fill="black"/>
<path d="M763.953 977.155H751.545V996H763.953V977.155Z" fill="black"/>
<path d="M739.136 928.468H726.72V947.313H739.136V928.468Z" fill="black"/>
<path d="M639.847 906.713H627.436V935.267H639.847V906.713Z" fill="black"/>
<path d="M639.847 949.589H627.436V967.713H639.847V949.589Z" fill="black"/>
<path d="M615.027 926.547H602.615V945.392H615.027V926.547Z" fill="black"/>
<path d="M590.205 955.422H577.793V974.268H590.205V955.422Z" fill="black"/>
<path d="M701.902 612H689.486V893.284H701.902V612Z" fill="black"/>
<path d="M714.311 612H701.902V905.363H714.311V612Z" fill="black"/>
<path d="M726.72 612H714.311V873.97H726.72V612Z" fill="black"/>
<path d="M739.136 612H726.72V844.954H739.136V612Z" fill="black"/>
<path d="M751.545 612H739.129V911.456H751.545V612Z" fill="black"/>
<path d="M763.953 612H751.545V933.016H763.953V612Z" fill="black"/>
<path d="M788.779 612H776.363V897.813H788.779V612Z" fill="black"/>
<path d="M813.596 612H801.187V894.884H813.596V612Z" fill="black"/>
<path d="M813.596 912.31H801.187V950.34H813.596V912.31Z" fill="black"/>
<path d="M888.064 934.653H875.648V954.067H888.064V934.653Z" fill="black"/>
<path d="M813.596 961.545H801.187V981.167H813.596V961.545Z" fill="black"/>
<path d="M838.421 612H826.005V911.456H838.421V612Z" fill="black"/>
<path d="M850.83 612H838.421V897.813H850.83V612Z" fill="black"/>
<path d="M801.187 612H788.779V879.773H801.187V612Z" fill="black"/>
<path d="M863.239 612H850.83V934.768H863.239V612Z" fill="black"/>
<path d="M863.239 959.3H850.83V977.893H863.239V959.3Z" fill="black"/>
<path d="M888.064 612H875.648V900.7H888.064V612Z" fill="black"/>
<path d="M900.473 612H888.064V866.869H900.473V612Z" fill="black"/>
<path fill-rule="evenodd" clip-rule="evenodd" d="M577.793 612H590.205V831.813H577.793V612ZM577.793 850.501V866.869H590.205V850.501H577.793Z" fill="black"/>
<path fill-rule="evenodd" clip-rule="evenodd" d="M627.436 612H639.847V808.406H627.436V612ZM627.436 826.932V856.639H639.847V826.932H627.436Z" fill="black"/>
<path fill-rule="evenodd" clip-rule="evenodd" d="M763.954 612H776.37V854.558H763.954V612ZM763.954 873.084V920.052H776.37V873.084H763.954Z" fill="black"/>
<path fill-rule="evenodd" clip-rule="evenodd" d="M813.596 612H826.005V808.346H813.596V612ZM813.596 826.99V854.299H826.005V826.99H813.596Z" fill="black"/>
<path fill-rule="evenodd" clip-rule="evenodd" d="M863.239 612H875.648V854.501H863.239V612ZM863.239 873.144V920.052H875.648V873.144H863.239Z" fill="black"/>
<path fill-rule="evenodd" clip-rule="evenodd" d="M677.077 612H689.493V831.895H677.077V612ZM677.077 858.016V873.97H689.493V858.016H677.077Z" fill="black"/>
<path d="M911.216 612H898.807V885.629H911.216V612Z" fill="black"/>
<path d="M923.625 612H911.216V914.787H923.625V612Z" fill="black"/>
<path d="M936.034 612H923.625V897.813H936.034V612Z" fill="black"/>
<path d="M960.858 612H948.442V882.336H960.858V612Z" fill="black"/>
<path d="M948.449 913.634H936.033V935.259H948.449V913.634Z" fill="black"/>
<path d="M923.625 929.758H911.216V950.814H923.625V929.758Z" fill="black"/>
<path d="M973.267 612H960.858V897.813H973.267V612Z" fill="black"/>
<path d="M985.676 612H973.267V873.97H985.676V612Z" fill="black"/>
<path d="M973.267 926.547H960.858V945.392H973.267V926.547Z" fill="black"/>
<path d="M948.449 955.422H936.033V974.268H948.449V955.422Z" fill="black"/>
<path fill-rule="evenodd" clip-rule="evenodd" d="M936.033 612H948.449V831.813H936.033V612ZM936.033 850.501V866.869H948.449V850.501H936.033Z" fill="black"/>
</g>
</svg>
