<svg width="231" height="249" viewBox="0 0 231 249" fill="none" xmlns="http://www.w3.org/2000/svg">
<g clip-path="url(#clip0_7_15)">
<path d="M122.464 227.09L41.9406 245.842C33.4936 247.805 26.4436 241.751 26.4436 232.261V16.7309C26.4436 7.24051 33.4936 1.1863 41.9406 3.14983L122.464 21.9015C128.322 23.2678 132.962 30.5165 132.962 38.1252V210.867C132.962 218.475 128.322 225.724 122.464 227.09Z" fill="#14424C"/>
<path d="M46.5725 248.599L35.6585 245.817L41.9896 244.157L46.5725 248.599Z" fill="#14424C"/>
<path d="M46.401 0.449974L35.5931 3.19891L38.4605 7.5105L46.401 0.449974Z" fill="#14424C"/>
<path d="M135.314 229.438L52.9526 248.624C44.3178 250.636 37.1044 244.443 37.1044 234.732V14.2683C37.1044 4.55702 44.3178 -1.63628 52.9526 0.376342L135.314 19.5617C141.311 20.9607 146.057 28.373 146.057 36.1535V39.1069L128.322 141.325L146.057 209.893V212.847C146.057 220.627 141.311 228.039 135.314 229.438Z" fill="#215E6D"/>
<path d="M146.057 209.893L37.1044 231.042V17.9581L146.057 39.1069V209.893Z" fill="#71D8C5"/>
<path d="M146.057 40.0233L37.1044 165.542V194.25L146.057 63.0293V40.0233Z" fill="#89E8D6"/>
<path d="M146.057 76.954L37.1044 211.628V231.042L57.748 227.041L146.057 111.038V76.954Z" fill="#89E8D6"/>
<path d="M37.1044 84.8244V142.241L132.431 36.4644L92.8673 28.7821L37.1044 84.8244Z" fill="#89E8D6"/>
<path d="M109.41 24.9614L85.1556 19.8971C84.1181 19.6844 83.2849 18.5144 83.2849 17.2954C83.2849 16.0764 84.1263 15.2664 85.1556 15.4873L109.41 20.7725C110.341 20.977 111.093 22.0733 111.093 23.2269C111.093 24.3805 110.341 25.1577 109.41 24.9695V24.9614Z" fill="#286F7F"/>
<path d="M109.41 20.7643L85.1556 15.4792C84.551 15.3482 84.0282 15.5773 83.6851 16.0191C83.6933 16.0191 83.7015 16.0191 83.7096 16.0191L107.964 21.3043C108.895 21.5088 109.647 22.6051 109.647 23.7587C109.647 24.225 109.516 24.6259 109.312 24.9368L109.41 24.9614C110.341 25.1577 111.093 24.3805 111.093 23.2187C111.093 22.057 110.341 20.9607 109.41 20.7643Z" fill="#368B99"/>
<path d="M219.375 159.987L90.8168 151.773C86.8548 151.519 83.6851 147.224 83.6851 142.184V70.9897C83.6851 65.9418 86.8548 61.483 90.8168 61.0167L219.375 45.9711C225.747 45.2266 231 49.9227 231 56.4678V148.868C231 155.413 225.739 160.388 219.375 159.987Z" fill="#BF7353"/>
<path d="M118.249 153.523L100.154 176.595L104.451 152.648L118.249 153.523Z" fill="#BF7353"/>
<path d="M95.4487 176.963L100.154 176.595L103.446 169.109L102.041 166.475L95.4487 176.963Z" fill="#BF7353"/>
<g opacity="0.53">
<path d="M79.7067 70.9897L74.3477 75.1541C71.513 77.3549 69.8465 80.7501 69.8465 84.3499V150.202C69.8465 154.669 73.4573 158.285 77.9176 158.285H88.8398L83.6769 178.256L102.115 156.984V133.258L79.7067 70.9897Z" fill="#52BAA6"/>
</g>
<path d="M221.377 160.968L225.51 158.58L222.684 158.293L221.377 160.968Z" fill="#EF6A96"/>
<path d="M227.479 48.4092L222.529 44.6457L224.146 48.99L227.479 48.4092Z" fill="#EF6A96"/>
<path d="M214.841 162.4L86.5035 151.871C82.7212 151.56 79.7149 147.224 79.7149 142.176V70.9816C79.7149 65.9337 82.7293 61.4257 86.5035 60.8939L214.841 42.8949C221.507 41.9622 227.03 46.7729 227.03 53.6698V150.922C227.03 157.81 221.507 162.948 214.841 162.4Z" fill="#FF9B71"/>
<path d="M112.939 154.047L95.4487 176.963L99.5823 152.951L112.939 154.047Z" fill="#FF9B71"/>
<path d="M183.167 125.356L156.538 75.9031C154.65 72.3969 149.622 72.3969 147.733 75.9031L121.105 125.356C120.695 126.117 120.489 126.972 120.508 127.836C120.527 128.7 120.77 129.545 121.213 130.288C121.656 131.03 122.283 131.645 123.035 132.072C123.786 132.5 124.636 132.725 125.5 132.727H178.764C179.629 132.727 180.48 132.502 181.232 132.075C181.985 131.648 182.613 131.034 183.057 130.291C183.501 129.548 183.744 128.703 183.763 127.838C183.783 126.973 183.577 126.118 183.167 125.356ZM152.136 125.07C151.518 125.07 150.914 124.887 150.4 124.544C149.886 124.2 149.485 123.712 149.249 123.141C149.012 122.57 148.95 121.942 149.071 121.336C149.192 120.729 149.489 120.173 149.926 119.736C150.363 119.299 150.92 119.001 151.526 118.88C152.132 118.76 152.761 118.822 153.332 119.058C153.903 119.295 154.391 119.695 154.734 120.209C155.078 120.723 155.261 121.327 155.261 121.945C155.261 122.774 154.932 123.569 154.346 124.155C153.76 124.741 152.965 125.07 152.136 125.07ZM155.53 93.6406L154.633 112.703C154.633 113.366 154.369 114.002 153.901 114.471C153.432 114.94 152.796 115.203 152.133 115.203C151.47 115.203 150.834 114.94 150.365 114.471C149.896 114.002 149.633 113.366 149.633 112.703L148.736 93.6484C148.716 93.1931 148.788 92.7384 148.947 92.3114C149.106 91.8843 149.35 91.4938 149.663 91.1629C149.977 90.8321 150.354 90.5678 150.772 90.3857C151.189 90.2036 151.64 90.1075 152.095 90.1031H152.128C152.587 90.1029 153.041 90.1956 153.463 90.3757C153.885 90.5558 154.266 90.8196 154.584 91.151C154.901 91.4825 155.148 91.8748 155.309 92.3043C155.471 92.7338 155.544 93.1916 155.523 93.65L155.53 93.6406Z" fill="white"/>
</g>
<defs>
<clipPath id="clip0_7_15">
<rect width="231" height="249" fill="white"/>
</clipPath>
</defs>
</svg>
